<?xml version="1.0" encoding="UTF-8"?>
<!-- Created with Inkscape (http://www.inkscape.org/) -->
<svg width="43.7mm" height="12.6mm" version="1.1" viewBox="0 0 43.7 12.6" xmlns="http://www.w3.org/2000/svg">
    <g clip-rule="evenodd" fill-rule="evenodd" stroke-linejoin="round" stroke-miterlimit="2">
        <g transform="matrix(.035328 0 0 .035328 -.10734 -.15407)">
            <path d="m1228.6 200.16-9.526-14.669m-17.683-16.835 34.149 52.584m2.3133 13.957-47.999-73.912m-10.651-6.0067 59.366 91.416m-0.1897 10.102-68.215-105.04m-8.1801-2.202 75.198 115.79m-1.388 8.257-81.901-126.12m-7.2376-0.75066 86.817 133.69m-1.7182 7.7486-92.258-142.07m-7.0916-0.52575 96.731 148.95m-3.3802 5.1893-99.686-153.5m-6.7502 0 103.43 159.26m-3.0162 5.7499-107.16-165.01m-6.7502 0 110.2 169.69m-3.6709 4.7416-50.454-77.693m-62.825-96.742 51.526 79.342m57.908 99.564-52.597-80.993m-63.586-97.914 51.526 79.342m60.623 103.75-52.264-80.48m-66.634-102.61 51.526 79.342m63.168 107.67-50.774-78.185m-70.67-108.82 51.725 79.65m65.349 111.02-49.118-75.634m-74.707-115.04 53.957 83.087m65.336 111-47.3-72.835m-78.743-121.25 66.728 102.75m54.617 94.498-45.316-69.781m-82.779-127.47 70.777 108.99m52.46 91.175-43.171-66.477m-24.578-37.846 12.588 19.384m-22.814-35.131-52.011-80.09m84.101 139.9 40.863 62.924m-52.84-81.367-15.288-23.542m-63.586-97.914 51.526 79.342m75.002 125.89-38.39-59.115m-31.302-48.2 19.337 29.777m-31.398-48.348-51.526-79.342m92.174 152.33 35.747 55.046m-83.146-128.03-51.526-79.342m93.332 154.11 35.796 55.122m-82.995-127.8-52.883-81.433m-6.7502 0 136.91 210.82m-5.9087 1.2957-137.75-212.12m-6.7502 0 138.6 213.42m-6.5601 0.29272-138.79-213.72m70.281 118.62 62.274 95.893m-86.244-132.8-53.061-81.706m74.032 124.39 58.774 90.504m-70.834-109.07-4.7889-7.3742m-63.934-98.449 51.147 78.759m80.988 135.1-58.102-89.469m-18.687-28.775 6.627 10.205m-17.952-27.643-50.771-78.18m88.451 146.6 43.684 67.267m-53.806-82.855-4.2957-6.6148m-18.947-29.176 6.8875 10.606m-17.978-27.684-50.745-78.14m90.435 149.65 41.699 64.211m-51.882-79.891-6.2205-9.5787m-18.426-28.373 6.3659 9.8026m-16.952-26.103-51.771-79.72m91.974 152.02 40.16 61.841m-50.547-77.836-7.555-11.634m-17.26-26.578 5.2 8.0073m-15.377-23.679-53.345-82.145m93.232 153.96 38.903 59.905m-49.622-76.411-8.4805-13.059m-15.26-23.498 3.2001 4.9277m-13.357-20.568-55.366-85.256m93.993 155.13 38.141 58.732m-49.118-75.635-8.9838-13.834m-80.782-124.39 57.811 89.022m74.323 124.84-37.42-57.621m-20.682-31.848 9.2085 14.18m-29.029-44.701-61.269-94.346m94.767 156.32 37.675 58.014m-49.755-76.616-8.3474-12.854m-31.781-48.938 15.589 24.004m-31.242-48.109-33.25-51.201m92.722 153.17 39.315 60.539m-68.888-106.08-14.244-21.934m-55.416-85.333 33.012 50.834m98.786 162.51-43.709-67.306m-32.674-50.313 15.251 23.484m-42.894-66.05-33.813-52.067m61.456 105.03 69.632 107.22m-88.204-135.82-48.832-75.195m67.404 114.19 62.882 96.83m-79.924-123.07-56.133-86.437m73.175 123.07 56.132 86.436m-87.029-134.01-47.84-73.668m87.805 145.6 40.314 62.078m-65.413-100.73-11.032-16.988m-57.065-87.872 45.076 69.411m81.684 136.18-38.802-59.75m-38.455-59.216 16.979 26.145m-27.763-42.751-43.938-67.659m86.428 143.48 38.802 59.75m-56.512-87.021-20.425-31.451m-53.348-82.149 43.011 66.231m80.524 134.39-43.315-66.699m-32.345-49.806 22.262 34.28m-32.408-49.904-42.62-65.629m80.586 134.49 41.09 63.273m-51.055-78.618-22.604-34.807m-52.744-81.219 42.573 65.556m77.08 129.09-39.31-60.532m-31.573-48.618 21.301 32.8m-31.725-48.852-42.911-66.077m79.446 132.73 38.022 58.549m-48.798-75.142-18.854-29.033m-54.218-83.489 43.415 66.854m71.705 120.81-37.841-58.27m-25.348-39.033 14.051 21.636m-25.396-39.106-44.824-69.023m74.333 124.86 38.275 58.938m-51.308-79.007-5.1673-7.9569m-60.247-92.772 46.94 72.282m63.031 107.45-41.035-63.188m-72.774-112.06 50.945 78.448m56.114 96.802-110.77-170.57m-3.4991 5.0063 107.52 165.56m-6.7502 0-104.13-160.35m-3.0002 5.7744 100.38 154.57m-6.6942 0.0862-96.496-148.59m-3.2799 5.3437 93.184 143.49m-7.1452-0.60826-87.787-135.18m-2.351 6.7741 82.916 127.68m-8.0736-2.0378-76.264-117.44m-1.2338 8.4944 69.338 106.77m-9.0158-3.4887-61.349-94.469m0.71617 11.497 50.754 78.155m-11.506-7.3226-37.71-58.068m6.1772 19.906 16.127 24.834"
                  fill="none" stroke="#000" stroke-width="2mm"/>
        </g>
        <g transform="matrix(.035328 0 0 .035328 -15.601 -22.669)">
            <path d="m1237.4 896.25-5.0711-7.8089m-7.0389-0.44455 9.6783 14.903m-3.8282 4.4994-11.592-17.849m-4.3433 3.7063 10.79 16.615m-6.1647 0.90165-7.7276-11.9"
                  fill="none" stroke="#000" stroke-width="2mm"/>
        </g>
        <g transform="matrix(.035328 0 0 .035328 -.10734 -.15407)">
            <path d="m248.54 13.681-4.6385-7.1427m-6.7502 0 8.7293 13.442m-2.6594 6.2993-12.82-19.741m-6.7502 0 16.911 26.041m-2.6594 6.2993-21.002-32.34m-6.7502 0 25.105 38.658m-2.6926 6.2481-29.162-44.906m48.992 85.836 3.214 4.949m-25.736-39.631-33.22-51.154m48.992 85.836 9.9641 15.343m-28.429-43.777-37.278-57.403m48.992 85.836 16.714 25.738m-31.122-47.923-32.845-50.576m40.502 72.762 23.465 36.132m-33.814-52.069-30.152-46.43m0 10.394 63.966 98.5m0 10.394-63.966-98.5m0 10.394 63.966 98.5m0 10.394-63.966-98.5m0 10.394 63.966 98.5m0 10.394-63.966-98.5m0 10.394 63.966 98.5m0 10.394-63.966-98.5m0 10.394 63.966 98.5m0 10.394-63.966-98.5m0 10.394 63.966 98.5m0 10.394-63.966-98.5m0 10.394 63.966 98.5m0 10.394-66.296-102.09m-12.195-8.3837 78.491 120.86m0 10.394-89.079-137.17m-9.1365-3.6746 98.216 151.24m0 10.394-107.25-165.14m-8.2686-2.3381 115.51 177.88m0 10.394-123.02-189.43m-7.4271-1.0423 130.45 200.87m1.6047 12.865-138.71-213.59m-6.8312-0.12472 138.79 213.72m-6.7502 0-74.581-114.84m-63.675-98.05 42.57 65.551m88.936 147.34-65.741-101.23m-72.304-111.34 37.117 57.155m94.177 155.41-59.244-91.228m-77.969-120.06 33.962 52.297m96.501 158.99-54.548-83.997m-81.819-125.99 32.34 49.8m97.277 160.19-50.193-77.291m-85.21-131.21 30.819 47.458m97.834 161.05-46.799-72.065m-87.314-134.45 30.156 46.436m97.207 160.08-43.821-67.478m-88.891-136.88 29.756 45.819m96.206 158.54-4.8194-7.4212m-36.376-56.014 25.501 39.268m-85.937-132.33-29.508-45.439m85.509 142.07 25.469 39.219m-86.558-133.29-29.432-45.321m85.78 142.48 25.577 39.385m-86.714-133.53-29.491-45.412m85.581 142.18 25.829 39.773m-86.396-133.04-29.698-45.731m84.91 141.14 26.225 40.383m-85.606-131.82-30.049-46.271m83.508 138.99 27.024 41.614m-84.323-129.85-30.566-47.068m81.564 135.99 28.03 43.162m-82.496-127.03-31.287-48.178m79.132 132.25 29.18 44.933m-79.57-122.53-32.75-50.431m75.64 126.87 31.025 47.775m-76.025-117.07-34.479-53.093m71.104 119.88 33.669 51.845m-71.318-109.82-37.165-57.229m63.525 108.21 38.905 59.908m-63.182-97.292-42.629-65.643m-3.5166 4.9793 103.12 158.8m-6.3597 0.6013-99.647-153.44m-2.7502 6.1594 95.879 147.64m-7.0751-0.50036-91.416-140.77m-2.4676 6.5945 86.739 133.57m-7.99-1.9092-80.301-123.65m-2.1479 7.087 75.139 115.7m-8.9196-3.3406-66.628-102.6m-0.96946 8.9015 58.578 90.202m-9.8878-4.8316-47.969-73.866m3.0796 15.137 32.627 50.241m-19.144-19.085-4.3161-6.6462"
                  fill="none" stroke="#000" stroke-width="2mm"/>
            <path d="m589.17 9.9782-2.4214-3.7286m-6.7403 0.015261 6.4691 9.9615m-2.6925 6.2482-10.517-16.195m-6.7403 0.015262 14.565 22.427m-2.6925 6.2482-18.624-28.679m-6.7502 0 22.682 34.927m-2.6925 6.2482-26.74-41.175m-6.7502 0 30.797 47.424m-2.6925 6.2482-34.855-53.672m-6.7502 0 38.912 59.92m-2.6925 6.2482-42.97-66.168m-6.7502 0 47.028 72.416m-2.6925 6.2482-51.085-78.665m-6.7502 0 55.143 84.913m-2.6925 6.2482-59.201-91.161m-6.7502 0 63.258 97.409m-2.6925 6.2482-67.316-103.66m-6.7502 0 71.374 109.91m-2.6925 6.2482-75.431-116.15m-6.7502 0 79.489 122.4m-2.6925 6.2482-83.547-128.65m-6.7502 0 87.604 134.9m-2.6925 6.2482-39.803-61.292m-51.859-79.855 39.609 60.992m49.36 86.403-39.748-61.207m-55.971-86.188 39.609 60.992m53.418 92.651-39.693-61.122m-60.084-92.521 39.609 60.992m57.476 98.899-39.638-61.037m-64.197-98.854 39.609 60.992m61.533 105.15-39.583-60.953m-68.309-105.19 39.609 60.992m65.591 111.4-39.528-60.868m-72.422-111.52 39.609 60.992m69.649 117.64-39.473-60.783m-76.535-117.85 39.609 60.992m73.706 123.89-39.418-60.698m-80.648-124.19 39.609 60.992m77.764 130.14-39.363-60.614m-84.76-130.52 39.609 60.992m81.822 136.39-39.308-60.529m-88.873-136.85 39.609 60.992m85.879 142.64-39.253-60.444m-85.181-131.17 31.804 48.975m89.937 148.89-39.198-60.359m-82.544-127.11 25.054 38.58m93.995 155.13-39.143-60.275m-79.906-123.04 18.304 28.186m98.052 161.38-39.088-60.19m-77.269-118.98 11.554 17.791m102.11 167.63-39.033-60.105m-74.631-114.92 4.8037 7.3971m106.17 173.88-38.978-60.02m-2.6375 6.333 38.923 59.936m-2.6925 6.2482-38.868-59.851m-2.6375 6.333 38.813 59.766m-2.6925 6.2482-38.758-59.681m-2.6375 6.333 38.703 59.597m-2.6925 6.2482-38.648-59.512m-2.6375 6.333 38.592 59.427m-2.6925 6.2482-38.537-59.342m-2.6375 6.333 38.482 59.258m-2.6925 6.2482-38.427-59.173m-2.6375 6.333 38.372 59.088m-2.6925 6.2482-38.317-59.004m-2.6375 6.333 38.262 58.919m-2.6925 6.2482-38.207-58.834m-2.6375 6.333 38.152 58.749m-2.6925 6.2482-38.097-58.665m-2.6375 6.333 38.042 58.58m-2.6925 6.2482-37.987-58.495m-2.6375 6.333 37.935 58.415m-6.7502 0-33.822-52.082m-2.6375 6.333 29.71 45.749m-6.7502 0-25.597-39.416m-2.7108 6.2201 21.557 33.196m-6.7502 0-17.5-26.947m-2.6925 6.2483 13.442 20.699m-6.7502 0-9.3845-14.451m-2.6925 6.2483 5.3268 8.2025m-6.7502 0-1.2691-1.9543"
                  fill="none" stroke="#000" stroke-width="2mm"/>
            <path d="m349.78 8.8873-2.7626-4.254m-6.7502 0 9.5128 14.648m0 10.394-16.263-25.043m-6.7502 0 23.013 35.437m0 10.394-29.763-45.831m-6.7502 0 36.514 56.226m0 10.394-43.264-66.62m-6.7502 0 50.014 77.015m0 10.394-56.764-87.409m-6.7502 0 63.514 97.803m0 10.394-68.612-105.65m-2.6376 6.3329 71.25 109.71m0 10.394-73.887-113.78m-2.6376 6.3329 76.525 117.84m0 10.394-79.223-121.99m-2.6925 6.2483 81.915 126.14m0 10.394-84.608-130.28m20.641 42.179 63.966 98.5m-76.945-118.48-10.355-15.945m23.334 46.325 63.966 98.5m-83.695-128.88-6.2974-9.6971m26.026 50.471 63.966 98.5m-90.445-139.27-2.2397-3.4489m28.719 54.617 63.966 98.5m0 10.394-63.966-98.5m0 10.394 63.966 98.5m0 10.394-63.966-98.5m0 10.394 63.966 98.5m0 10.394-63.966-98.5m0 10.394 63.966 98.5m0 10.394-63.966-98.5m0 10.394 63.966 98.5m0 10.394-63.966-98.5m0 10.394 63.966 98.5m0 10.394-63.966-98.5m0 10.394 63.966 98.5m0 10.394-63.966-98.5m0 10.394 62.4 96.087m-6.7502 0-55.65-85.693m0 10.394 48.899 75.299m-6.7502 0-42.149-64.904m0 10.394 35.399 54.51m-6.7502 0-28.649-44.115m0 10.394 21.899 33.721m-6.7502 0-15.149-23.327m0 10.394 8.3984 12.932m-6.7502 0-1.6482-2.538"
                  fill="none" stroke="#000" stroke-width="2mm"/>
        </g>
        <g transform="matrix(.035328 0 0 .035328 -21.702 -24.449)">
            <path d="m1352.7 904.36-29.283-45.091m-12.26-8.4838 44.234 68.115m-6.1237 0.96474-48.859-75.237m-9.2662-3.8744 52.002 80.076m-6.1237 0.96474-54.353-83.696m-8.3834-2.5149 56.613 87.176m-6.1237 0.96474-58.094-89.457m-6.8179-0.10416 58.788 90.526m-6.1237 0.96474-60.124-92.583m-6.2002 0.84695 60.201 92.701m35.236 64.653-4.4497-6.8519m-97.751-150.52 60.841 93.687m38.176 69.18-9.8218-15.124m-95.297-146.74 60.819 93.653m40.898 73.371-14.989-23.081m-93.036-143.26 61.004 93.938m43.417 77.25-19.952-30.724m-90.141-138.8 60.552 93.243m45.745 80.836-25.346-39.03m-86.638-133.41 60.116 92.57m47.892 84.142-24.446-37.643m-89.068-137.15 59.498 91.618m49.882 87.207-23.9-36.802m-49.31-75.93 17.203 26.49m-36.154-55.672-22.55-34.724m86.793 144.04 23.57 36.294m-57.783-88.978-13.506-20.798m-44.237-68.119 20.795 32.022m90.245 149.36-23.426-36.072m-47.561-73.238 11.566 17.81m-36.257-55.831-20.353-31.341m87.952 145.83 23.428 36.077m-60.894-93.768-10.547-16.24m-44.768-68.936 20.567 31.671m90.828 150.26-23.57-36.294m-49.128-75.65 10.493 16.158m-32.189-49.567-21.667-33.364m87.222 144.7 23.861 36.743m-63.351-97.552-13.41-20.65m-38.825-59.785 25.656 39.506m84.784 140.95-24.316-37.443m-90.456-139.29 50.444 77.677m59.011 101.26-25.134-38.703m-88.489-136.26 48.489 74.667m59.73 102.37-26.083-40.165m-86.132-132.63 46.362 71.392m60.102 102.94-27.617-42.527m-82.746-127.42 44.138 67.966m60.355 103.33-30.509-46.98m-77.52-119.37 41.55 63.982m60.403 103.41-34.062-52.451m-71.477-110.07 41.884 64.495m57.361 98.722-102.29-157.51m-2.9585 5.8386 98.713 152m-6.5852 0.2541-95.475-147.02m-2.5977 6.3943 90.996 140.12m-7.1492-0.6145-85.541-131.72m-2.2952 6.8601 80.605 124.12m-8.0828-2.0522-73.882-113.77m-1.1653 8.5999 66.119 101.81m-9.0319-3.5135-57.247-88.152m0.7246 11.51 46.619 71.786m-13.023-9.6587-30.507-46.977"
                  fill="none" stroke="#000" stroke-width="2mm"/>
        </g>
    </g>
</svg>
