<?xml version="1.0" encoding="UTF-8" standalone="no"?>
<!-- Created with Inkscape (http://www.inkscape.org/) -->

<svg
   width="56.754112mm"
   height="17.24991mm"
   viewBox="0 0 214.50374 65.19651"
   version="1.1"
   id="svg1"
   xml:space="preserve"
   xmlns="http://www.w3.org/2000/svg"
   xmlns:svg="http://www.w3.org/2000/svg"><defs
     id="defs1" /><g
     id="layer1"
     transform="translate(-18.897637,-18.897638)"><g
       style="clip-rule:evenodd;fill-rule:evenodd;stroke-linejoin:round;stroke-miterlimit:2"
       id="g2"
       transform="matrix(0.1458442,0,0,0.1458442,18.897564,18.897602)"><g
         transform="translate(-132.86,-511.155)"
         id="g27">
        <g
   transform="matrix(1.2778,0,0,0.628916,-36.908,356.196)"
   id="g1">
            <g
   id="g3"><path
   d="M 1283.88,246.391 V 957.183 H 132.86 V 246.391 Z M 750.665,807.315 h 125.941 v -71.53 H 787.875 V 632.852 h 79.858 v -70.949 h -79.858 v -90.139 h 88.731 v -71.53 H 750.665 Z M 1266.21,283.923 H 931.171 v 635.74 H 1266.21 Z M 208.261,807.315 h 59.822 c 58.677,0 86.155,-78.509 86.155,-180.279 v -46.523 c 0,-101.771 -27.478,-180.279 -86.155,-180.279 h -59.822 z m 37.21,-72.693 V 472.927 h 22.612 c 38.355,0 48.945,43.616 48.945,107.586 v 46.523 c 0,63.97 -10.59,107.586 -48.945,107.586 z m 154.277,72.693 H 517.675 V 734.622 H 477.603 V 400.234 h -36.065 v 17.446 c 0,26.751 -5.439,34.893 -18.891,34.893 H 401.18 v 69.785 h 40.072 v 212.264 h -41.504 z m 186.908,0 H 627.3 l 79,-332.062 V 400.234 H 566.047 v 72.111 h 99.608 l -78.999,329.154 z"
   id="path1"
   style="display:inline" />
        <path
   style="display:inline;fill:none;stroke:#000000;stroke-width:1"
   d="m 134.88808,257.1608 1.65934,-3.37136 c 2.15111,-4.37051 6.45332,-4.37051 4.30221,0 l -5.96155,12.11238 m 0,8.74101 10.26376,-20.85339 c 2.15111,-4.37051 6.45332,-4.37051 4.30221,0 l -14.56597,29.59441 m 0,8.74102 18.86819,-38.33543 c 2.1511,-4.37051 6.45331,-4.37051 4.30221,0 l -23.1704,47.07644 m 0,8.74102 27.47261,-55.81746 c 2.1511,-4.37051 6.45331,-4.37051 4.30221,0 l -31.77482,64.55848 m 0,8.74101 36.07703,-73.29949 c 2.15111,-4.37051 6.45332,-4.37051 4.30221,0 l -40.37924,82.04051 m 0,8.74102 44.68145,-90.78153 c 2.15111,-4.37051 6.45332,-4.37051 4.30221,0 l -48.98366,99.52255 m 0,8.74101 53.28588,-108.26356 c 2.1511,-4.37051 6.45331,-4.37051 4.30221,0 l -57.58809,117.00458 m 0,8.74102 61.8903,-125.7456 c 2.1511,-4.37051 6.45331,-4.37051 4.30221,0 l -66.19251,134.48661 m 0,8.74102 70.49472,-143.22763 c 2.15111,-4.37051 6.45332,-4.37051 4.30221,0 l -74.79693,151.96865 m 0,8.74101 79.09914,-160.70966 c 2.15111,-4.37051 6.45332,-4.37051 4.30221,0 l -83.40135,169.45068 m 0,8.74102 87.70356,-178.1917 c 2.15111,-4.37051 6.45332,-4.37051 4.30222,0 l -92.00578,186.93272 m 0,8.74101 96.30799,-195.67373 c 2.1511,-4.37051 6.45331,-4.37051 4.30221,0 l -100.6102,204.41475 m 0,8.74102 104.91241,-213.15577 c 2.15111,-4.37051 6.45332,-4.37051 4.30221,0 L 134.88808,475.68622 m 0,8.74102 113.51683,-230.6378 c 2.15111,-4.37051 6.45332,-4.37051 4.30221,0 L 134.88808,493.16826 m 0,8.74102 122.12125,-248.11984 c 2.15111,-4.37051 6.45332,-4.37051 4.30222,0 L 134.88808,510.65029 m 0,8.74102 130.72568,-265.60187 c 2.1511,-4.37051 6.45331,-4.37051 4.30221,0 L 134.88808,528.13233 m 0,8.74101 139.3301,-283.0839 c 2.15111,-4.37051 6.45332,-4.37051 4.30221,0 L 134.88808,545.61436 M 212.77264,396.11345 282.8226,253.78944 c 2.15111,-4.37051 6.45332,-4.37051 4.30221,0 l -68.43663,139.04612 c -2.15111,4.37051 2.1511,4.37051 4.30221,0 l 68.43663,-139.04612 c 2.15111,-4.37051 6.45332,-4.37051 4.30222,0 L 227.2926,392.83556 c -2.15111,4.37051 2.1511,4.37051 4.30221,0 l 68.43664,-139.04612 c 2.1511,-4.37051 6.45331,-4.37051 4.30221,0 l -68.43664,139.04612 c -2.15111,4.37051 2.15111,4.37051 4.30221,0 l 68.43664,-139.04612 c 2.1511,-4.37051 6.45332,-4.37051 4.30221,0 l -68.43664,139.04612 c -2.1511,4.37051 2.15111,4.37051 4.30221,0 l 68.43664,-139.04612 c 2.15111,-4.37051 6.45332,-4.37051 4.30221,0 l -68.43664,139.04612 c -2.1511,4.37051 2.15111,4.37051 4.30221,0 l 68.43664,-139.04612 c 2.15111,-4.37051 6.45332,-4.37051 4.30221,0 l -68.43663,139.04612 c -2.15111,4.37051 2.1511,4.37051 4.30221,0 l 68.43663,-139.04612 c 2.15111,-4.37051 6.45332,-4.37051 4.30222,0 l -68.43664,139.04612 c -2.15111,4.37051 2.0514,4.57309 4.2025,0.20258 l 68.53635,-139.2487 c 2.1511,-4.37051 6.45331,-4.37051 4.30221,0 L 278.58851,393.5073 c -2.15111,4.37051 1.80632,5.07103 3.95742,0.70053 l 69.11205,-140.41839 c 2.1511,-4.37051 6.45331,-4.37051 4.30221,0 l -69.53506,141.27784 c -2.1511,4.37051 1.53674,5.61876 3.68784,1.24825 L 360.2624,253.78944 c 2.15111,-4.37051 6.45332,-4.37051 4.30221,0 L 293.6989,397.77083 c -2.15111,4.37051 1.33554,6.02755 3.48664,1.65704 l 71.68128,-145.63844 c 2.15111,-4.3705 6.45332,-4.3705 4.30221,0 l -72.56796,147.43996 c -2.15111,4.37051 1.09289,6.52053 3.244,2.15002 l 73.62617,-149.58998 c 2.15111,-4.37051 6.45332,-4.37051 4.30221,0 l -74.77536,151.92483 c -2.1511,4.37051 0.91256,6.88693 3.06367,2.51642 l 76.01391,-154.44125 c 2.1511,-4.37051 6.45331,-4.37051 4.30221,0 L 313.05105,410.8982 c -2.1511,4.3705 0.68919,7.34075 2.8403,2.97025 l 78.78874,-160.07902 c 2.1511,-4.37051 6.45332,-4.37051 4.30221,0 l -80.33455,163.21971 c -2.1511,4.37051 0.52221,7.68001 2.67332,3.30951 l 81.96344,-166.52922 c 2.15111,-4.37051 6.45332,-4.37051 4.30221,0 l -83.67459,170.00584 c -2.1511,4.37051 0.31182,8.10747 2.46293,3.73696 l 85.51387,-173.7428 c 2.15111,-4.37051 6.45332,-4.37051 4.30221,0 L 328.758,431.43171 c -2.15111,4.37051 0.15196,8.43227 2.30307,4.06176 l 89.43228,-181.70404 c 2.15111,-4.37051 6.45332,-4.37051 4.30222,0 L 333.27374,439.7389 c -2.15111,4.37051 -0.0509,8.84451 2.10016,4.474 l 93.72388,-190.42347 c 2.1511,-4.37051 6.45331,-4.37051 4.30221,0 l -96.00482,195.05778 c -2.15111,4.37051 -0.20926,9.16618 1.94184,4.79567 L 437.7022,253.78943 c 2.1511,-4.37051 6.45332,-4.37051 4.30221,0 L 339.57035,461.90982 M 134.88808,554.35538 206.23292,409.40052 M 134.88808,563.0964 206.23292,418.14153 M 134.88808,571.83741 206.23292,426.88255 M 134.88808,580.57843 206.23292,435.62357 M 134.88808,589.31945 206.23292,444.36458 M 134.88808,598.06046 206.23292,453.1056 M 134.88808,606.80148 206.23292,461.84662 M 134.88808,615.5425 206.23292,470.58764 M 134.88808,624.28351 206.23292,479.32865 M 134.88808,633.02453 206.23292,488.06967 M 134.88808,641.76555 206.23292,496.81069 M 134.88808,650.50657 206.23292,505.5517 M 134.88808,659.24758 206.23292,514.29272 M 134.88808,667.9886 206.23292,523.03374 m -71.34484,153.69588 71.34484,-144.95487 m -71.34484,153.69588 71.34484,-144.95486 m -71.34484,153.69588 71.34484,-144.95486 m -71.34484,153.69588 71.34484,-144.95486 m 41.26616,-75.10151 1.43934,-2.92437 c 1.91911,-3.89917 6.22133,-3.89917 4.30221,0 l -5.74155,11.66539 m -41.26616,75.1015 -71.34484,144.95486 m 0,8.74102 71.34484,-144.95486 m 41.26616,-75.10151 9.86977,-20.05289 c 2.15111,-4.37051 6.45332,-4.37051 4.30221,0 l -14.17198,28.79391 m -41.26616,75.10151 -71.34484,144.95486 m 0,8.74102 71.34484,-144.95487 m 41.26616,-75.1015 18.49025,-37.56757 c 2.15111,-4.37051 6.30298,-4.06506 4.15188,0.30545 l -22.64213,46.00314 m -41.26616,75.1015 -71.34484,144.95486 m 0,8.74102 71.34484,-144.95486 m 41.26616,-75.10151 26.71316,-54.27446 c 2.15111,-4.37051 6.16708,-3.78893 4.01597,0.58157 l -30.72913,62.43391 m -41.26616,75.10151 -71.34484,144.95486 m 0,8.74101 71.34484,-144.95486 m 41.26616,-75.1015 34.2018,-69.4895 c 2.1511,-4.37051 5.6499,-2.73816 3.49879,1.63234 l -37.70059,76.59817 m -41.26616,75.10151 -71.34484,144.95486 m 0,8.74102 71.34484,-144.95486 m 41.26616,-75.10151 40.94267,-83.18526 c 2.15111,-4.37051 5.19483,-1.81358 3.04372,2.55693 l -43.98639,89.36935 m -41.26616,75.1015 -71.34484,144.95487 m 0,8.74101 71.34484,-144.95486 m 41.26616,-75.10151 46.8676,-95.22322 c 2.1511,-4.37051 4.79186,-0.99485 2.64075,3.37566 l -49.50835,100.58858 m -41.26616,75.10151 -71.34484,144.95486 m 0,8.74102 71.34484,-144.95487 m 41.26616,-75.1015 51.92185,-105.4922 c 2.1511,-4.37051 4.38951,-0.17738 2.23841,4.19312 l -54.16026,110.0401 m -41.26616,75.1015 -71.34484,144.95486 m 0,8.74102 71.34484,-144.95486 m 41.26616,-75.10151 57.82889,-117.49383 M 206.23292,706.5951 134.88808,851.54996 M 307.10337,510.39258 247.49908,631.49359 m -112.611,228.79738 71.34484,-144.95486 m 41.26616,-75.1015 61.20565,-124.35458 M 206.23292,724.07713 134.88808,869.03199 M 310.13253,521.72013 247.49908,648.97562 m -112.611,228.79739 71.34484,-144.95486 M 341.31165,467.11297 446.30663,253.78944 c 2.1511,-4.37051 6.45332,-4.37051 4.30221,0 L 342.97242,472.47971 M 247.49908,657.71664 311.36354,527.96003 M 206.23292,741.55916 134.88808,886.51403 m 177.4764,-351.84665 -64.8654,131.79028 m -112.611,228.79738 71.34484,-144.95486 M 344.55151,478.01243 454.91105,253.78944 c 2.15111,-4.37051 6.45332,-4.37051 4.30221,0 L 346.04758,483.7138 M 247.49908,675.19868 313.2076,541.69541 M 206.23292,759.0412 134.88808,903.99606 m 179.0534,-355.0507 -66.4424,134.99433 m -112.611,228.79739 71.34484,-144.95487 M 347.41301,489.68061 463.51547,253.78944 c 2.15111,-4.37051 6.45332,-4.37051 4.30221,0 L 348.70364,495.79937 M 247.49908,692.68071 314.40154,556.75164 M 206.23292,776.52323 134.88808,921.47809 M 314.72587,564.83371 247.49908,701.42173 m -112.611,228.79738 71.34484,-144.95486 M 349.90729,502.09487 472.11989,253.78944 c 2.15111,-4.37051 6.45332,-4.37051 4.30221,0 L 351.0218,508.57149 M 247.49908,710.16274 314.91937,573.18158 M 206.23292,794.00527 134.88808,938.96013 M 315.01274,581.7329 247.49908,718.90376 m -112.611,228.79738 71.34484,-144.95486 M 352.04477,515.23409 480.72432,253.78944 c 2.1511,-4.37051 6.45331,-4.37051 4.30221,0 L 352.91994,522.19697 m -37.92002,68.30299 -65.88751,133.86694 c -2.15111,4.3705 0.74509,7.22717 2.8962,2.85666 L 314.99992,599.24098 M 136.55153,953.06245 205.22106,813.54314 c 2.15111,-4.37051 5.87731,-3.20021 3.72621,1.1703 l -66.4802,135.07112 c -2.1511,4.37051 2.15111,4.37051 4.30222,0 l 66.48019,-135.07112 c 2.15111,-4.37051 6.45332,-4.37051 4.30221,0 L 151.0715,949.78456 c -2.15111,4.37051 2.1511,4.37051 4.30221,0 L 221.8539,814.71344 c 2.15111,-4.37051 6.45332,-4.37051 4.30221,0 l -66.48019,135.07112 c -2.15111,4.37051 2.1511,4.37051 4.30221,0 l 66.48019,-135.07112 c 2.15111,-4.37051 6.45332,-4.37051 4.30221,0 l -66.48019,135.07112 c -2.15111,4.37051 2.15111,4.37051 4.30221,0 l 66.4802,-135.07112 c 2.1511,-4.37051 6.45331,-4.37051 4.30221,0 l -66.4802,135.07112 c -2.1511,4.37051 2.15111,4.37051 4.30221,0 l 66.4802,-135.07112 c 2.1511,-4.37051 6.45331,-4.37051 4.30221,0 l -66.4802,135.07112 c -2.1511,4.37051 2.15111,4.37051 4.30222,0 l 66.48019,-135.07112 c 2.15111,-4.37051 6.45332,-4.37051 4.30221,0 l -66.48019,135.07112 c -2.15111,4.37051 2.1511,4.37051 4.30221,0 l 66.76965,-135.65923 c 2.15111,-4.37051 6.22087,-3.89824 4.06977,0.47227 l -66.53721,135.18696 c -2.15111,4.37051 2.1511,4.37051 4.30221,0 l 66.70504,-135.52795 c 2.1511,-4.37051 6.79848,-5.0718 4.64738,-0.70129 l -67.05021,136.22924 c -2.15111,4.37051 2.15111,4.37051 4.30221,0 l 69.233,-140.66413 M 353.72231,529.30778 489.32874,253.78944 c 2.15111,-4.37051 6.45332,-4.37051 4.30221,0 l -139.20572,282.8312 m -39.42531,71.36136 -58.6891,119.24156 c -2.15111,4.37051 2.15111,4.37051 4.30221,0 l 54.38689,-110.50055 m 40.02503,-72.57983 142.90821,-290.35374 c 2.15111,-4.37051 6.45332,-4.37051 4.30221,0 l -94.19719,191.38512 c -2.1511,4.37051 2.15111,4.37051 4.30221,0 l 94.19719,-191.38512 c 2.15111,-4.37051 6.45332,-4.37051 4.30221,0 l -94.19718,191.38512 c -2.15111,4.37051 2.1511,4.37051 4.30221,0 l 18.5651,-37.71964 m -124.51,218.00911 -50.08468,101.75953 c -2.1511,4.37051 2.15111,4.37051 4.30221,0 l 45.70191,-92.85483 m 84.23256,-171.1395 -43.63463,88.65466 m 43.63463,-79.91364 -43.25438,87.88209 m -41.20202,83.71219 -41.03083,83.36439 c -2.15111,4.3705 2.02595,4.62477 4.17706,0.25427 l 36.7555,-74.67798 m 84.55467,-171.79394 -43.1794,87.72974 m 89.11952,-172.32756 70.04997,-142.32401 c 2.1511,-4.37051 6.45331,-4.37051 4.30221,0 l -68.43664,139.04612 c -2.1511,4.37051 2.15111,4.37051 4.30221,0 l 68.43664,-139.04612 c 2.15111,-4.37051 6.45332,-4.37051 4.30221,0 L 459.612,392.83556 c -2.1511,4.37051 2.15111,4.37051 4.30221,0 l 68.43664,-139.04612 c 2.15111,-4.37051 6.45332,-4.37051 4.30221,0 l -68.43664,139.04612 c -2.1511,4.37051 2.15111,4.37051 4.30222,0 l 68.43663,-139.04612 c 2.15111,-4.37051 6.45332,-4.37051 4.30221,0 l -68.43663,139.04612 c -2.15111,4.37051 1.6429,5.40305 3.794,1.03255 l 68.94484,-140.07867 c 2.15111,-4.37051 6.45332,-4.37051 4.30222,0 l -74.23083,150.81847 m -123.89179,173.04798 43.41263,-88.20361 m -85.41809,173.54819 -32.18373,65.38928 m 157.95982,-312.19381 -14.26289,28.97862 c -2.15111,4.37051 2.38685,3.89153 4.53796,-0.47898 l 9.5033,-19.30832 m -40.13637,72.80604 -42.88584,87.13329 m -69.16322,140.52238 25.85146,-52.5237 m 43.31176,-79.25766 42.88584,-87.13329 M 309.4837,689.1177 292.97352,722.66227 m 139.65594,-275.00494 6.85906,-13.93589 m -40.3366,81.9539 -42.88584,87.13329 m -54.66589,111.06742 3.42585,-6.96047 m 51.24004,-95.36594 41.27251,-83.85541 c 2.15111,-4.37051 5.43833,-2.3083 3.28722,2.06221 l -44.55973,90.53422 m -0.017,8.77551 48.87892,-99.30973 c 2.15111,-4.37051 6.45332,-4.37051 4.30221,0 L 356.14924,638.0101 m -0.26201,9.27334 57.84521,-117.527 c 2.15111,-4.37051 6.45332,-4.37051 4.30222,0 L 355.43215,656.94906 M 479.63108,413.34892 558.16412,253.78944 c 2.15111,-4.37051 6.45332,-4.37051 4.30221,0 l -82.83525,168.3005 M 354.74339,667.08948 422.33687,529.75644 c 2.1511,-4.37051 6.45331,-4.37051 4.30221,0 L 353.16691,679.0335 m -63.16879,128.3432 -70.09125,142.40786 c -2.1511,4.37051 2.15111,4.37051 4.30222,0 l 70.71896,-143.68325 c 2.15111,-4.37051 7.08572,-5.65539 4.93462,-1.28488 L 228.5113,949.78456 c -2.15111,4.37051 2.1511,4.37051 4.30221,0 l 76.53993,-155.51 m 170.27764,-363.4436 87.13746,-177.04152 c 2.15111,-4.37051 6.45332,-4.37051 4.30221,0 L 479.63108,439.57198 M 352.48416,689.1617 430.94129,529.75644 c 2.15111,-4.37051 6.45332,-4.37051 4.30221,0 L 349.54212,703.88021 M 479.63108,448.31299 575.37296,253.78944 c 2.15111,-4.37051 6.45332,-4.37051 4.30222,0 l -100.0441,203.26457 m -40.40716,73.35623 -92.9673,188.8863 m -9.01031,27.04772 101.97761,-207.193 M 323.0347,775.21868 237.11572,949.78456 c -2.15111,4.37051 2.15111,4.37051 4.30221,0 L 439.22392,547.89228 m 40.40716,-82.09725 104.34631,-212.00559 c 2.1511,-4.37051 6.45331,-4.37051 4.30221,0 l -108.64852,220.7466 m -40.40716,82.09725 -193.50378,393.15127 c -2.1511,4.37051 2.15111,4.37051 4.30221,0 L 439.22392,565.37431 m 40.40716,-82.09725 112.95073,-229.48762 c 2.15111,-4.37051 6.45332,-4.37051 4.30221,0 L 479.63108,492.01808 m -40.40716,82.09725 -184.89935,375.66923 c -2.15111,4.37051 2.1511,4.37051 4.30221,0 L 439.22392,582.85634 m 40.40716,-82.09725 121.55515,-246.96965 c 2.15111,-4.37051 6.45332,-4.37051 4.30221,0 L 479.63108,509.50011 m -40.40716,82.09725 -176.29493,358.1872 c -2.15111,4.37051 2.1511,4.37051 4.30221,0 L 439.22392,600.33838 m 40.40716,-82.09725 130.15957,-264.45169 c 2.15111,-4.37051 6.45332,-4.37051 4.30222,0 L 479.63108,526.98215 m -40.40716,82.09724 -167.69051,340.70517 c -2.15111,4.37051 2.15111,4.37051 4.30221,0 l 163.3883,-331.96415 m 40.40716,-82.09725 138.764,-281.93372 c 2.1511,-4.37051 6.45331,-4.37051 4.30221,0 L 479.63108,544.46418 m -40.40716,82.09725 -159.08609,323.22313 c -2.1511,4.37051 2.15111,4.37051 4.30221,0 L 439.22392,635.30245 M 479.63108,553.2052 626.9995,253.78944 c 2.1511,-4.37051 6.45331,-4.37051 4.30221,0 L 479.63108,561.94621 m -40.40716,82.09725 -150.48167,305.7411 c -2.1511,4.37051 2.15111,4.37051 4.30221,0 L 439.22392,652.78448 m 40.40716,-82.09725 155.97284,-316.89779 c 2.15111,-4.37051 6.45332,-4.37051 4.30221,0 L 571.4695,392.83556 c -2.15111,4.37051 2.1511,4.37051 4.30221,0 l 68.43663,-139.04612 c 2.15111,-4.37051 6.45332,-4.37051 4.30221,0 l -68.43663,139.04612 c -2.15111,4.37051 2.1511,4.37051 4.30221,0 l 68.43663,-139.04612 c 2.15111,-4.37051 6.45332,-4.37051 4.30222,0 l -68.43664,139.04612 c -2.15111,4.37051 2.1511,4.37051 4.30221,0 l 68.43664,-139.04612 c 2.1511,-4.37051 6.45331,-4.37051 4.30221,0 l -68.43664,139.04612 c -2.15111,4.37051 2.15111,4.37051 4.30221,0 l 68.43664,-139.04612 c 2.1511,-4.37051 6.45332,-4.37051 4.30221,0 l -68.43664,139.04612 c -2.1511,4.37051 2.15111,4.37051 4.30221,0 l 68.43664,-139.04612 c 2.15111,-4.37051 6.45332,-4.37051 4.30221,0 L 614.4916,392.83556 c -2.1511,4.37051 2.15111,4.37051 4.30222,0 l 68.43663,-139.04612 c 2.15111,-4.37051 6.45332,-4.37051 4.30221,0 l -68.43663,139.04612 c -2.15111,4.37051 2.1511,4.37051 4.30221,0 l 68.43663,-139.04612 c 2.15111,-4.37051 6.45332,-4.37051 4.30222,0 l -68.43664,139.04612 c -2.15111,4.37051 2.1511,4.37051 4.30221,0 L 704.4393,253.78944 c 2.1511,-4.37051 6.45331,-4.37051 4.30221,0 l -68.43664,139.04612 c -2.15111,4.37051 2.15111,4.37051 4.30221,0 l 68.43664,-139.04612 c 2.1511,-4.37051 6.45332,-4.37051 4.30221,0 l -68.43664,139.04612 c -2.1511,4.37051 2.15111,4.37051 4.30221,0 l 68.43664,-139.04612 c 2.15111,-4.37051 6.45332,-4.37051 4.30221,0 l -68.43664,139.04612 c -2.1511,4.37051 2.15111,4.37051 4.30222,0 l 68.43663,-139.04612 c 2.15111,-4.37051 6.45332,-4.37051 4.30221,0 l -68.43663,139.04612 c -2.15111,4.37051 2.1511,4.37051 4.30221,0 l 68.43663,-139.04612 c 2.15111,-4.37051 6.45332,-4.37051 4.30222,0 l -68.43664,139.04612 c -2.15111,4.37051 2.1511,4.37051 4.30221,0 l 68.43664,-139.04612 c 2.1511,-4.37051 6.45331,-4.37051 4.30221,0 l -68.43664,139.04612 c -2.15111,4.37051 2.15111,4.37051 4.30221,0 l 68.43664,-139.04612 c 2.1511,-4.37051 6.45332,-4.37051 4.30221,0 L 691.9314,392.83556 c -2.1511,4.37051 2.15111,4.37051 4.30221,0 l 68.43664,-139.04612 c 2.15111,-4.37051 6.45332,-4.37051 4.30221,0 l -68.43664,139.04612 c -2.1511,4.37051 2.15111,4.37051 4.30222,0 l 68.43663,-139.04612 c 2.15111,-4.37051 6.45332,-4.37051 4.30221,0 l -70.07747,142.37989 m -143.48049,11.80394 -84.38784,171.45498 m -40.40716,82.09725 -32.33571,65.69806 c -2.1511,4.37051 2.15111,4.37051 4.30221,0 l 28.0335,-56.95705 m -41.504,75.58473 -100.37324,203.93332 c -2.15111,4.37051 2.1511,4.37051 4.30221,0 l 96.07103,-195.1923 m 166.299,-337.87797 -84.38784,171.45497 m 84.38784,-162.71395 -84.38784,171.45497 m -40.40716,82.09725 -23.73129,48.21603 c -2.1511,4.37051 2.15111,4.37051 4.30222,0 l 19.42907,-39.47501 m -41.504,75.58473 -91.76882,186.45128 c -2.15111,4.37051 2.15111,4.37051 4.30221,0 l 87.46661,-177.71027 m 166.299,-337.87797 -84.38784,171.45498 m 84.38784,-162.71396 -84.38784,171.45498 m -40.40716,82.09725 -15.12686,30.73399 c -2.15111,4.37051 2.1511,4.37051 4.30221,0 l 10.82465,-21.99298 m -41.504,75.58473 -83.1644,168.96925 c -2.1511,4.37051 2.15111,4.37051 4.30221,0 l 78.86219,-160.22823 m 166.299,-337.87797 -84.38784,171.45497 m 84.38784,-162.71396 -84.38784,171.45498 m -40.40716,82.09725 -6.52244,13.25196 c -2.15111,4.37051 2.15111,4.37051 4.30221,0 l 2.22023,-4.51094 m -41.504,75.58473 -74.55998,151.48721 c -2.1511,4.37051 2.15111,4.37051 4.30221,0 l 68.64444,-139.46832 c 2.1511,-4.37051 4.28908,0.0267 2.13797,4.3972 l -66.48019,135.07112 c -2.15111,4.37051 2.1511,4.37051 4.30221,0 l 66.48019,-135.07112 c 2.15111,-4.37051 6.45332,-4.37051 4.30221,0 l -66.48019,135.07112 c -2.15111,4.37051 2.15111,4.37051 4.30221,0 l 66.48019,-135.07112 c 2.15111,-4.37051 6.45332,-4.37051 4.30222,0 l -66.4802,135.07112 c -2.15111,4.37051 2.15111,4.37051 4.30221,0 l 66.4802,-135.07112 c 2.1511,-4.37051 6.45331,-4.37051 4.30221,0 l -66.4802,135.07112 c -2.1511,4.37051 2.15111,4.37051 4.30221,0 l 66.4802,-135.07112 c 2.1511,-4.37051 6.45332,-4.37051 4.30221,0 l -66.4802,135.07112 c -2.1511,4.37051 2.15111,4.37051 4.30222,0 l 66.48019,-135.07112 c 2.15111,-4.37051 6.45332,-4.37051 4.30221,0 l -66.48019,135.07112 c -2.15111,4.37051 2.1511,4.37051 4.30221,0 l 66.48019,-135.07112 c 2.15111,-4.37051 6.45332,-4.37051 4.30221,0 L 383.3909,949.78456 c -2.15111,4.37051 2.15111,4.37051 4.30221,0 L 454.1733,814.71344 c 2.15111,-4.37051 6.45332,-4.37051 4.30222,0 l -66.4802,135.07112 c -2.15111,4.37051 2.15111,4.37051 4.30221,0 l 66.4802,-135.07112 c 2.1511,-4.37051 6.45331,-4.37051 4.30221,0 l -66.4802,135.07112 c -2.1511,4.37051 2.15111,4.37051 4.30221,0 l 66.4802,-135.07112 c 2.1511,-4.37051 6.45332,-4.37051 4.30221,0 l -66.4802,135.07112 c -2.1511,4.37051 2.15111,4.37051 4.30222,0 l 66.48019,-135.07112 c 2.15111,-4.37051 6.45332,-4.37051 4.30221,0 l -66.48019,135.07112 c -2.15111,4.37051 2.1511,4.37051 4.30221,0 l 66.48019,-135.07112 c 2.15111,-4.37051 6.45332,-4.37051 4.30221,0 l -66.48019,135.07112 c -2.15111,4.37051 2.15111,4.37051 4.30221,0 l 66.48019,-135.07112 c 2.15111,-4.37051 6.45332,-4.37051 4.30222,0 l -66.4802,135.07112 c -2.15111,4.37051 2.15111,4.37051 4.30221,0 l 66.4802,-135.07112 c 2.1511,-4.37051 6.45331,-4.37051 4.30221,0 l -66.4802,135.07112 c -2.1511,4.37051 2.15111,4.37051 4.30221,0 l 196.9019,-400.05539 m -80.80704,-80.56878 -84.38784,171.45498 m 0,8.74101 83.57551,-169.80452 c 2.15111,-4.37051 6.35902,-4.17893 4.20792,0.19158 L 479.63108,658.0974 m 0,8.74102 92.08564,-187.09498 c 2.15111,-4.37051 6.45332,-4.37051 4.30221,0 l -96.38785,195.836 m 0,8.74101 100.69006,-204.57701 c 2.15111,-4.37051 6.45332,-4.37051 4.30221,0 L 479.63108,693.06147 m 0,8.74102 109.29448,-222.05905 c 2.15111,-4.37051 6.45332,-4.37051 4.30222,0 L 479.63108,710.5435 m 0,8.74102 117.89891,-239.54108 c 2.1511,-4.37051 6.45331,-4.37051 4.30221,0 L 481.24441,724.74766 c -2.1511,4.3705 0.9325,6.84641 3.0836,2.4759 l 121.8064,-247.48012 c 2.15111,-4.37051 6.45332,-4.37051 4.30221,0 l -121.8064,247.48012 c -2.1511,4.37051 2.15111,4.37051 4.30222,0 L 614.73883,479.74344 c 2.15111,-4.37051 6.45332,-4.37051 4.30221,0 L 497.23465,727.22356 c -2.15111,4.37051 2.1511,4.37051 4.30221,0 L 623.34325,479.74344 c 2.15111,-4.37051 6.45332,-4.37051 4.30221,0 L 505.83907,727.22356 c -2.15111,4.37051 2.1511,4.37051 4.30221,0 L 631.94767,479.74344 c 2.15111,-4.37051 6.45332,-4.37051 4.30222,0 l -121.8064,247.48012 c -2.15111,4.37051 2.15111,4.37051 4.30221,0 L 640.5521,479.74344 c 2.1511,-4.37051 6.45331,-4.37051 4.30221,0 L 519.70308,734.01943 m 0,8.74101 129.45344,-263.017 c 2.15111,-4.37051 6.45332,-4.37051 4.30221,0 L 519.70308,751.50146 m 0,8.74102 138.05786,-280.49904 c 2.15111,-4.37051 3.98087,0.65288 1.82977,5.02339 L 519.70308,768.9835 M 657.10952,498.54901 519.70308,777.72451 m 188.625,-374.4978 73.55102,-149.43727 c 2.15111,-4.37051 6.45332,-4.37051 4.30221,0 L 708.32808,411.96773 M 519.70308,786.46553 653.015,515.60906 m -4.09452,17.06006 -129.2174,262.53743 m 188.625,-374.4978 82.15544,-166.91931 c 2.15111,-4.37051 6.45332,-4.37051 4.30221,0 L 708.32808,429.44976 M 640.73144,566.78923 452.22628,949.78456 c -2.15111,4.37051 2.15111,4.37051 4.30221,0 L 636.63692,583.84928 m 71.69116,-145.6585 90.75987,-184.40134 c 2.1511,-4.37051 6.45331,-4.37051 4.30221,0 L 708.32808,446.9318 M 632.5424,600.90934 460.8307,949.78456 c -2.1511,4.37051 2.15111,4.37051 4.30221,0 L 628.44788,617.96939 m 79.8802,-162.29658 99.36429,-201.88337 c 2.1511,-4.37051 6.45332,-4.37051 4.30221,0 L 708.32808,464.41383 M 624.35337,635.02945 469.43513,949.78456 c -2.15111,4.37051 2.1511,4.37051 4.30221,0 L 620.25885,652.08951 M 708.31596,473.17948 816.29679,253.78944 c 2.15111,-4.37051 6.45332,-4.37051 4.30221,0 l -114.89539,233.4387 m -89.53928,181.92142 -138.12478,280.635 c -2.15111,4.37051 2.1511,4.37051 4.30221,0 L 612.06981,686.20962 M 826.51454,250.51155 756.46458,392.83556 c -2.15111,4.37051 2.1511,4.37051 4.30221,0 l 68.43663,-139.04612 c 2.15111,-4.37051 6.45332,-4.37051 4.30222,0 L 765.069,392.83556 c -2.15111,4.37051 2.1511,4.37051 4.30221,0 l 68.43664,-139.04612 c 2.1511,-4.37051 6.45331,-4.37051 4.30221,0 l -68.43664,139.04612 c -2.15111,4.37051 2.15111,4.37051 4.30221,0 l 68.43664,-139.04612 c 2.1511,-4.37051 6.45332,-4.37051 4.30221,0 l -68.43664,139.04612 c -2.1511,4.37051 2.15111,4.37051 4.30221,0 l 68.43664,-139.04612 c 2.15111,-4.37051 6.45332,-4.37051 4.30221,0 l -68.43664,139.04612 c -2.1511,4.37051 2.15111,4.37051 4.30222,0 l 68.43663,-139.04612 c 2.15111,-4.37051 6.45332,-4.37051 4.30221,0 l -68.43663,139.04612 c -2.15111,4.37051 2.1511,4.37051 4.30221,0 l 68.43663,-139.04612 c 2.15111,-4.37051 6.45332,-4.37051 4.30222,0 l -68.43664,139.04612 c -2.15111,4.37051 2.1511,4.37051 4.30221,0 l 68.43664,-139.04612 c 2.1511,-4.37051 6.45331,-4.37051 4.30221,0 l -68.43664,139.04612 c -2.15111,4.37051 2.15111,4.37051 4.30221,0 l 68.43664,-139.04612 c 2.1511,-4.37051 6.45332,-4.37051 4.30221,0 l -68.43664,139.04612 c -2.1511,4.37051 2.15111,4.37051 4.30221,0 L 898.0388,253.78944 c 2.15111,-4.37051 6.45332,-4.37051 4.30221,0 l -68.43664,139.04612 c -2.1511,4.37051 2.15111,4.37051 4.30222,0 l 68.43663,-139.04612 c 2.15111,-4.37051 6.45332,-4.37051 4.30221,0 L 842.5088,392.83556 c -2.15111,4.37051 2.1511,4.37051 4.30221,0 l 68.43663,-139.04612 c 2.15111,-4.37051 6.45332,-4.37051 4.30222,0 l -68.43664,139.04612 c -2.15111,4.37051 2.1511,4.37051 4.30221,0 l 68.43664,-139.04612 c 2.1511,-4.37051 6.45331,-4.37051 4.30221,0 l -68.43664,139.04612 c -2.15111,4.37051 2.15111,4.37051 4.30221,0 l 68.43664,-139.04612 c 2.1511,-4.37051 6.45332,-4.37051 4.30221,0 l -68.43664,139.04612 c -2.1511,4.37051 2.15111,4.37051 4.30221,0 l 68.43664,-139.04612 c 2.15111,-4.37051 6.45332,-4.37051 4.30221,0 l -68.43664,139.04612 c -2.1511,4.37051 1.16982,6.36425 3.32092,1.99374 l 48.89551,-99.34344 M 701.6784,504.14738 748.63692,408.73941 m 0,8.74102 -50.98374,103.58619 M 607.97529,703.26967 486.64397,949.78456 c -2.15111,4.37051 2.15111,4.37051 4.30221,0 L 603.88077,720.32973 m 89.7472,-182.34386 55.00895,-111.76443 m 0,8.74102 -59.03416,119.94265 M 599.78625,737.38978 495.24839,949.78456 c -2.1511,4.37051 2.15111,4.37051 4.30221,0 l 96.14113,-195.33472 m 89.88581,-182.62549 63.05938,-128.12087 m 0,8.74101 -67.08459,136.2991 M 591.59721,771.5099 503.85282,949.78456 c -2.15111,4.37051 2.1511,4.37051 4.30221,0 l 79.34766,-161.21461 m 90.02443,-182.90712 71.1098,-144.47732 m 0,8.74102 -75.13501,152.65555 m -88.98893,180.80324 -72.05574,146.39924 c -2.15111,4.37051 2.1511,4.37051 4.30221,0 l 66.91507,-135.95468 c 2.1511,-4.37051 6.01844,-3.48695 3.86733,0.88356 l -66.48019,135.07112 c -2.15111,4.37051 2.15111,4.37051 4.30221,0 l 66.4802,-135.07112 c 2.1511,-4.37051 6.45331,-4.37051 4.30221,0 l -66.4802,135.07112 c -2.1511,4.37051 2.15111,4.37051 4.30221,0 l 66.4802,-135.07112 c 2.1511,-4.37051 6.45331,-4.37051 4.30221,0 l -66.4802,135.07112 c -2.1511,4.37051 2.15111,4.37051 4.30221,0 l 66.4802,-135.07112 c 2.15111,-4.37051 6.45332,-4.37051 4.30221,0 l -66.48019,135.07112 c -2.15111,4.37051 2.1511,4.37051 4.30221,0 l 66.48019,-135.07112 c 2.15111,-4.37051 6.45332,-4.37051 4.30221,0 l -66.48019,135.07112 c -2.15111,4.37051 2.1511,4.37051 4.30221,0 L 748.63692,566.07772 m -79.16023,73.4236 79.16023,-160.83378 m 0,8.74102 -83.18544,169.012 m -4.02521,16.91924 87.21065,-177.19022 m 0,8.74102 -91.23586,185.36844 m -4.02521,16.91925 95.26107,-193.54668 m 0,8.74102 -99.28629,201.7249 m -4.02521,16.91924 103.3115,-209.90312 m 0,8.74101 -107.33671,218.08135 m -4.02522,16.91925 111.36193,-226.25958 m 0,8.74102 -115.38714,234.4378 m 156.6533,-309.53931 1.56285,-3.17532 c 2.0838,-4.23376 6.38601,-4.23376 4.30221,0 l -5.86506,11.91634 m -41.26616,83.84252 -184.55315,374.96583 c -2.1511,4.37051 2.15111,4.37051 4.30221,0 L 748.63692,583.55975 m 41.26616,-83.84252 10.11679,-20.55479 c 2.15111,-4.37051 6.45332,-4.37051 4.30222,0 l -14.41901,29.2958 m -41.26616,83.84253 -175.94873,357.48379 c -2.1511,4.37051 2.15111,4.37051 4.30221,0 L 748.63692,601.04178 m 41.26616,-83.84252 18.72122,-38.03682 c 2.1511,-4.37051 6.45331,-4.37051 4.30221,0 l -23.02343,46.77784 m -41.26616,83.84252 -167.3443,340.00176 c -2.15111,4.37051 2.1511,4.37051 4.30221,0 L 748.63692,618.52382 m 41.26616,-83.84253 27.32564,-55.51885 c 2.15111,-4.37051 6.45332,-4.37051 4.30221,0 l -31.62785,64.25987 m -41.26616,83.84252 -158.73988,322.51973 c -2.15111,4.37051 2.15111,4.37051 4.30221,0 L 748.63692,636.00585 m 41.26616,-83.84252 35.93006,-73.00089 c 2.15111,-4.37051 6.45332,-4.37051 4.30221,0 l -37.08238,75.34212 c -2.15111,4.37051 2.1511,4.37051 4.30221,0 l 37.08238,-75.34212 c 2.15111,-4.37051 6.45332,-4.37051 4.30221,0 l -37.08238,75.34212 c -2.1511,4.37051 2.15111,4.37051 4.30221,0 l 37.08239,-75.34212 c 2.1511,-4.37051 6.45331,-4.37051 4.30221,0 l -37.08239,75.34212 c -2.1511,4.37051 2.15111,4.37051 4.30221,0 l 37.08239,-75.34212 c 2.1511,-4.37051 6.45331,-4.37051 4.30221,0 l -37.08238,75.34212 c -2.15111,4.37051 2.1511,4.37051 4.30221,0 l 37.08238,-75.34212 c 2.15111,-4.37051 6.45332,-4.37051 4.30221,0 l -37.08238,75.34212 c -2.15111,4.37051 2.1511,4.37051 4.30221,0 l 38.69571,-78.62001 M 748.63692,644.74687 598.50146,949.78456 c -2.1511,4.37051 2.15111,4.37051 4.30221,0 L 748.63692,653.48789 m 188.22516,-373.68545 12.80326,-26.013 c 2.15111,-4.37051 6.45332,-4.37051 4.30221,0 l -11.18992,22.73512 c -2.15111,4.37051 2.1511,4.37051 4.30221,0 l 11.18992,-22.73512 c 2.15111,-4.37051 6.45332,-4.37051 4.30221,0 l -11.18992,22.73512 c -2.15111,4.37051 2.1511,4.37051 4.30221,0 l 11.18992,-22.73512 c 2.15111,-4.37051 6.45332,-4.37051 4.30221,0 l -11.18992,22.73512 c -2.15111,4.37051 2.15111,4.37051 4.30221,0 l 11.18992,-22.73512 c 2.15111,-4.37051 6.45332,-4.37051 4.30222,0 l -11.18993,22.73512 c -2.1511,4.37051 2.15111,4.37051 4.30221,0 l 11.18993,-22.73512 c 2.1511,-4.37051 6.45331,-4.37051 4.30221,0 l -11.18993,22.73512 c -2.1511,4.37051 2.15111,4.37051 4.30221,0 l 11.18993,-22.73512 c 2.1511,-4.37051 6.45332,-4.37051 4.30221,0 l -11.18992,22.73512 c -2.15111,4.37051 2.1511,4.37051 4.30221,0 l 11.18995,-22.73512 c 2.1511,-4.37051 6.4533,-4.37051 4.3022,0 l -11.18994,22.73512 c -2.15111,4.37051 2.1511,4.37051 4.30221,0 l 11.18993,-22.73512 c 2.1511,-4.37051 6.4533,-4.37051 4.3022,0 l -11.1899,22.73512 c -2.1511,4.37051 2.1511,4.37051 4.3022,0 l 11.1899,-22.73512 c 2.1511,-4.37051 6.4533,-4.37051 4.3022,0 l -11.1899,22.73512 c -2.1511,4.37051 2.1511,4.37051 4.3022,0 l 11.1899,-22.73512 c 2.1511,-4.37051 6.4534,-4.37051 4.3022,0 l -11.1899,22.73512 c -2.1511,4.37051 2.1511,4.37051 4.3022,0 l 11.19,-22.73512 c 2.1511,-4.37051 6.4533,-4.37051 4.3022,0 l -11.19,22.73512 c -2.1511,4.37051 2.1512,4.37051 4.3023,0 l 11.1899,-22.73512 c 2.1511,-4.37051 6.4533,-4.37051 4.3022,0 l -11.1899,22.73512 c -2.1511,4.37051 2.1511,4.37051 4.3022,0 l 11.1899,-22.73512 c 2.1511,-4.37051 6.4533,-4.37051 4.3022,0 l -11.1899,22.73512 c -2.1511,4.37051 2.1511,4.37051 4.3022,0 l 11.1899,-22.73512 c 2.1511,-4.37051 6.4533,-4.37051 4.3022,0 l -11.1899,22.73512 c -2.1511,4.37051 2.1511,4.37051 4.3022,0 l 11.1899,-22.73512 c 2.1512,-4.37051 6.4534,-4.37051 4.3023,0 l -11.19,22.73512 c -2.1511,4.37051 2.1511,4.37051 4.3022,0 l 11.19,-22.73512 c 2.1511,-4.37051 6.4533,-4.37051 4.3022,0 l -11.1899,22.73512 c -2.1512,4.37051 2.1511,4.37051 4.3022,0 l 11.1899,-22.73512 c 2.1511,-4.37051 6.4533,-4.37051 4.3022,0 l -11.1899,22.73512 c -2.1511,4.37051 2.1511,4.37051 4.3022,0 l 11.1899,-22.73512 c 2.1511,-4.37051 6.4533,-4.37051 4.3022,0 l -11.1899,22.73512 c -2.1511,4.37051 2.1511,4.37051 4.3022,0 l 11.1899,-22.73512 c 2.1511,-4.37051 6.4534,-4.37051 4.3022,0 l -11.1899,22.73512 c -2.1511,4.37051 2.1511,4.37051 4.3022,0 l 11.19,-22.73512 c 2.1511,-4.37051 6.4533,-4.37051 4.3022,0 l -11.19,22.73512 c -2.1511,4.37051 2.1511,4.37051 4.3023,0 l 11.1899,-22.73512 c 2.1511,-4.37051 6.4533,-4.37051 4.3022,0 l -11.1899,22.73512 c -2.1511,4.37051 2.1511,4.37051 4.3022,0 l 11.1899,-22.73512 c 2.1511,-4.37051 6.4533,-4.37051 4.3022,0 l -11.1899,22.73512 c -2.1511,4.37051 2.1511,4.37051 4.3022,0 l 11.1899,-22.73512 c 2.1511,-4.37051 6.4533,-4.37051 4.3022,0 l -11.1899,22.73512 c -2.1511,4.37051 2.1511,4.37051 4.3022,0 l 11.1899,-22.73512 c 2.1512,-4.37051 6.4534,-4.37051 4.3023,0 l -11.19,22.73512 c -2.1511,4.37051 2.1511,4.37051 4.3022,0 l 11.19,-22.73512 c 2.1511,-4.37051 6.4533,-4.37051 4.3022,0 l -11.1899,22.73512 c -2.1512,4.37051 2.1511,4.37051 4.3022,0 l 11.1899,-22.73512 c 2.1511,-4.37051 6.4533,-4.37051 4.3022,0 l -11.1899,22.73512 c -2.1511,4.37051 2.1511,4.37051 4.3022,0 l 11.1899,-22.73512 c 2.1511,-4.37051 6.4533,-4.37051 4.3022,0 l -11.1899,22.73512 c -2.1511,4.37051 2.1511,4.37051 4.3022,0 l 11.1899,-22.73512 c 2.1511,-4.37051 6.4533,-4.37051 4.3022,0 l -11.1899,22.73512 c -2.1511,4.37051 2.1511,4.37051 4.3022,0 l 11.19,-22.73512 c 2.1511,-4.37051 6.4533,-4.37051 4.3022,0 l -11.19,22.73512 c -2.1511,4.37051 2.1511,4.37051 4.3023,0 l 11.1899,-22.73512 c 2.1511,-4.37051 6.4533,-4.37051 4.3022,0 l -11.1899,22.73512 c -2.1511,4.37051 2.1511,4.37051 4.3022,0 l 11.1899,-22.73512 c 2.1511,-4.37051 6.4533,-4.37051 4.3022,0 l -11.1899,22.73512 c -2.1511,4.37051 2.1511,4.37051 4.3022,0 l 11.1899,-22.73512 c 2.1511,-4.37051 6.4533,-4.37051 4.3022,0 l -11.1899,22.73512 c -2.1511,4.37051 2.1511,4.37051 4.3022,0 l 11.1899,-22.73512 c 2.1511,-4.37051 6.4534,-4.37051 4.3023,0 l -11.19,22.73512 c -2.1511,4.37051 2.1511,4.37051 4.3022,0 l 11.19,-22.73512 c 2.1511,-4.37051 6.4533,-4.37051 4.3022,0 l -11.1899,22.73512 c -2.1512,4.37051 2.1511,4.37051 4.3022,0 l 11.1899,-22.73512 c 2.1511,-4.37051 6.4533,-4.37051 4.3022,0 l -11.1899,22.73512 c -2.1511,4.37051 2.1511,4.37051 4.3022,0 l 11.1899,-22.73512 c 2.1511,-4.37051 6.4533,-4.37051 4.3022,0 l -11.1899,22.73512 c -2.1511,4.37051 2.1511,4.37051 4.3022,0 l 11.1899,-22.73512 c 2.1511,-4.37051 6.4533,-4.37051 4.3022,0 l -11.1899,22.73512 c -2.1511,4.37051 2.1511,4.37051 4.3022,0 l 11.19,-22.73512 c 2.1511,-4.37051 6.4533,-4.37051 4.3022,0 l -11.19,22.73512 c -2.1511,4.37051 2.1511,4.37051 4.3023,0 l 11.1899,-22.73512 c 2.1511,-4.37051 5.7563,-2.95436 3.6052,1.41615 l -12.6255,25.65183 M 748.63692,662.2289 607.10588,949.78456 c -2.1511,4.37051 2.15111,4.37051 4.30221,0 L 748.63692,670.96992 m 180.506,-366.74304 -50.50884,102.62132 m 50.50884,-93.88031 -50.50884,102.62133 M 748.63692,679.71094 615.71031,949.78456 c -2.15111,4.37051 2.1511,4.37051 4.30221,0 l 128.6244,-261.33261 m 180.506,-366.74304 -50.50884,102.62132 m 50.50884,-93.8803 -50.50884,102.62132 M 748.63692,697.19297 624.31473,949.78456 c -2.15111,4.37051 2.1511,4.37051 4.30221,0 L 748.63692,705.93399 m 180.506,-366.74304 -50.50884,102.62132 m 50.50884,-93.88031 -50.50884,102.62133 M 748.63692,714.67501 632.91915,949.78456 c -2.1511,4.37051 2.15111,4.37051 4.30221,0 L 748.63692,723.41602 m 180.506,-366.74304 -50.50884,102.62132 m -88.731,180.2792 0.64008,-1.30047 c 0.85343,-1.73397 5.15564,-1.73397 4.30221,0 l -4.94229,10.04149 M 929.14292,365.414 836.07508,554.50456 c -2.15111,4.37051 2.15111,4.37051 4.30221,0 l 88.76563,-180.34955 m -180.506,358.00203 -107.11335,217.62752 c -2.1511,4.37051 2.15111,4.37051 4.30221,0 l 102.81114,-208.8865 m 41.26616,-83.84253 8.27125,-16.80509 c 2.1511,-4.37051 6.45331,-4.37051 4.30221,0 l -12.57346,25.54611 M 929.14292,382.89603 844.6795,554.50456 c -2.1511,4.37051 2.15111,4.37051 4.30221,0 L 929.14292,391.63705 M 748.63692,749.63907 650.128,949.78456 c -2.15111,4.37051 2.1511,4.37051 4.30221,0 l 94.20671,-191.40447 m 41.26616,-83.84252 16.87567,-34.28713 c 2.1511,-4.37051 6.45332,-4.37051 4.30221,0 l -21.17788,43.02814 M 929.14292,400.37807 853.28393,554.50456 c -2.15111,4.37051 2.1511,4.37051 4.30221,0 l 71.55678,-145.38548 m -180.506,358.00203 -89.9045,182.66345 c -2.15111,4.37051 2.1511,4.37051 4.30221,0 l 85.60229,-173.92244 m 41.26616,-83.84252 25.48009,-51.76916 c 2.15111,-4.37051 6.45332,-4.37051 4.30221,0 l -29.7823,60.51018 M 929.14292,417.8601 861.88835,554.50456 c -2.15111,4.37051 2.1511,4.37051 4.30221,0 l 62.95236,-127.90344 m -180.506,358.00202 -81.30008,165.18142 c -2.15111,4.37051 2.15111,4.37051 4.30221,0 l 76.99787,-156.4404 m 41.26616,-83.84252 34.08451,-69.2512 c 2.15111,-4.37051 6.45332,-4.37051 4.30221,0 l -38.38672,77.99221 m 78.97636,-160.4602 60.26348,-122.44032 m -180.506,366.74305 -72.69566,147.69938 c -2.1511,4.37051 2.15111,4.37051 4.30221,0 l 67.16206,-136.45648 c 2.1511,-4.37051 5.77146,-2.98515 3.62035,1.38536 l -66.48019,135.07112 c -2.15111,4.37051 2.1511,4.37051 4.30221,0 l 66.48019,-135.07112 c 2.15111,-4.37051 6.45332,-4.37051 4.30221,0 l -66.48019,135.07112 c -2.15111,4.37051 2.1511,4.37051 4.30221,0 l 66.48019,-135.07112 c 2.15111,-4.37051 6.45332,-4.37051 4.30221,0 l -66.48019,135.07112 c -2.15111,4.37051 2.15111,4.37051 4.30221,0 l 66.4802,-135.07112 c 2.1511,-4.37051 6.45331,-4.37051 4.30221,0 l -66.4802,135.07112 c -2.1511,4.37051 2.15111,4.37051 4.30221,0 l 66.4802,-135.07112 c 2.1511,-4.37051 6.45331,-4.37051 4.30221,0 l -66.4802,135.07112 c -2.1511,4.37051 2.15111,4.37051 4.30221,0 l 66.4802,-135.07112 c 2.15111,-4.37051 6.45332,-4.37051 4.30221,0 L 727.5678,949.78456 c -2.15111,4.37051 2.1511,4.37051 4.30221,0 L 798.3502,814.71344 c 2.15111,-4.37051 6.45332,-4.37051 4.30221,0 l -66.48019,135.07112 c -2.15111,4.37051 2.1511,4.37051 4.30221,0 l 66.48019,-135.07112 c 2.15111,-4.37051 6.45332,-4.37051 4.30221,0 l -66.48019,135.07112 c -2.15111,4.37051 2.15111,4.37051 4.30221,0 l 66.4802,-135.07112 c 2.1511,-4.37051 6.45331,-4.37051 4.30221,0 l -66.4802,135.07112 c -2.1511,4.37051 2.15111,4.37051 4.30221,0 l 66.4802,-135.07112 c 2.1511,-4.37051 6.45331,-4.37051 4.30221,0 l -66.4802,135.07112 c -2.1511,4.37051 2.15111,4.37051 4.30221,0 l 66.4802,-135.07112 c 2.15111,-4.37051 6.45332,-4.37051 4.30221,0 l -66.48019,135.07112 c -2.15111,4.37051 2.1511,4.37051 4.30221,0 l 66.48019,-135.07112 c 2.15111,-4.37051 6.45332,-4.37051 4.30221,0 l -66.48019,135.07112 c -2.15111,4.37051 2.1511,4.37051 4.30221,0 l 66.48019,-135.07112 c 2.15111,-4.37051 6.45332,-4.37051 4.30221,0 l -66.48019,135.07112 c -2.15111,4.37051 2.15111,4.37051 4.30221,0 l 66.4802,-135.07112 c 2.1511,-4.37051 6.45331,-4.37051 4.30221,0 l -66.4802,135.07112 c -2.1511,4.37051 2.15111,4.37051 4.30221,0 l 66.4802,-135.07112 c 2.1511,-4.37051 6.45331,-4.37051 4.30221,0 l -66.4802,135.07112 c -2.1511,4.37051 2.15111,4.37051 4.30221,0 L 929.14291,706.31366 M 869.76108,564.73219 929.14292,444.08315 m -139.23984,282.90052 42.68894,-86.73323 c 2.1511,-4.37051 6.45331,-4.37051 4.30221,0 l -43.37942,88.13612 c -2.15111,4.37051 2.1511,4.37051 4.30221,0 l 43.37942,-88.13612 c 2.1511,-4.37051 6.45331,-4.37051 4.30221,0 l -43.37942,88.13612 c -2.15111,4.37051 2.15111,4.37051 4.30221,0 l 43.37942,-88.13612 c 2.1511,-4.37051 6.45332,-4.37051 4.30221,0 l -43.37942,88.13612 c -2.1511,4.37051 2.15111,4.37051 4.30221,0 l 43.37942,-88.13612 c 2.15111,-4.37051 6.45332,-4.37051 4.30221,0 l -43.37942,88.13612 c -2.1511,4.37051 2.15111,4.37051 4.30221,0 L 929.14292,514.01129 m -59.38184,59.46192 59.38184,-120.64904 M 869.76108,582.21422 929.14292,461.56518 M 869.76108,590.95524 929.14292,470.3062 m -59.38184,129.39006 59.38184,-120.64904 m -59.38184,129.39005 59.38184,-120.64903 m -59.38184,129.39005 59.38184,-120.64904 m -59.38184,129.39006 59.38184,-120.64904 m 0,17.48203 -101.21042,205.63426 c -2.15111,4.37051 2.1511,4.37051 4.30221,0 l 96.90821,-196.89324 m 0,8.74102 -92.606,188.15222 c -2.15111,4.37051 2.15111,4.37051 4.30221,0 l 88.30379,-179.4112 m 0,8.74101 -84.00158,170.67019 c -2.1511,4.37051 2.15111,4.37051 4.30221,0 l 79.69937,-161.92917 m 0,8.74102 -75.39716,153.18815 c -2.1511,4.37051 2.15111,4.37051 4.30221,0 l 71.09495,-144.44714 m 0,8.74102 -66.79273,135.70612 c -2.15111,4.37051 2.1511,4.37051 4.30221,0 l 62.49052,-126.9651 m 0,8.74101 -58.18831,118.22409 c -2.15111,4.37051 2.15111,4.37051 4.30221,0 l 53.8861,-109.48307 m 0,8.74102 -51.30447,104.23785 m 0.79563,7.12449 50.50884,-102.62132 m 0,8.74101 -50.50884,102.62132 m 0,8.74102 50.50884,-102.62132 m 0,8.74102 -50.50884,102.62132 m 0,8.74102 50.50884,-102.62133 m 0,8.74102 -50.50884,102.62132 m 0,8.74102 50.50884,-102.62132 m 0,8.74101 -50.50884,102.62133 m 50.50884,-85.13929 -115.5309,234.72988 c -2.15111,4.37051 2.15111,4.37051 4.30221,0 L 929.14292,723.7957 m 0,8.74101 -106.92648,217.24785 c -2.1511,4.37051 2.15111,4.37051 4.30222,0 L 929.14292,741.27773 m 0,8.74102 -98.32205,199.76581 c -2.15111,4.37051 2.1511,4.37051 4.30221,0 l 94.01984,-191.0248 m 0,8.74102 -89.71763,182.28378 c -2.15111,4.37051 2.1511,4.37051 4.30221,0 L 929.14292,776.2418 m 0,8.74102 -81.11321,164.80174 c -2.15111,4.37051 2.15111,4.37051 4.30221,0 l 76.811,-156.06073 m 0,8.74102 -72.50879,147.31971 c -2.1511,4.37051 2.15111,4.37051 4.30221,0 l 68.20658,-138.57869 m 0,8.74101 -63.90436,129.83768 c -2.15111,4.37051 2.1511,4.37051 4.30221,0 L 929.14292,828.6879 m 0,8.74102 -55.29994,112.35564 c -2.15111,4.37051 2.1511,4.37051 4.30221,0 l 50.99773,-103.61463 m 0,8.74102 -46.69552,94.87361 c -2.15111,4.37051 2.15111,4.37051 4.30221,0 l 42.39331,-86.13259 m 0,8.74102 -38.0911,77.39157 c -2.1511,4.37051 2.15111,4.37051 4.30221,0 L 929.14292,881.134 m 0,8.74102 -29.48667,59.90954 c -2.15111,4.37051 2.1511,4.37051 4.30221,0 l 25.18446,-51.16852 m 0,8.74101 -20.88225,42.42751 c -2.15111,4.37051 2.1511,4.37051 4.30221,0 l 16.58004,-33.68649 m -13.89116,36.96438 13.024,-26.46152 c 2.15111,-4.37051 6.22667,-3.91 4.07556,0.46051 l -11.18402,22.72312 c -2.1511,4.37051 2.15111,4.37051 4.30221,0 l 11.18402,-22.72312 c 2.15111,-4.37051 6.45332,-4.37051 4.30221,0 l -11.18402,22.72312 c -2.1511,4.37051 2.15111,4.37051 4.30222,0 l 11.18401,-22.72312 c 2.15111,-4.37051 6.45332,-4.37051 4.30221,0 l -11.18401,22.72312 c -2.15111,4.37051 2.1511,4.37051 4.30221,0 l 11.18402,-22.72312 c 2.1511,-4.37051 6.45331,-4.37051 4.30221,0 l -11.18402,22.72312 c -2.15111,4.37051 2.1511,4.37051 4.30221,0 l 11.18402,-22.72312 c 2.1511,-4.37051 6.45331,-4.37051 4.30221,0 l -11.18402,22.72312 c -2.15111,4.37051 2.15111,4.37051 4.30221,0 l 11.18402,-22.72312 c 2.15111,-4.37051 6.45332,-4.37051 4.30221,0 l -11.18402,22.72312 c -2.1511,4.37051 2.15111,4.37051 4.30221,0 l 11.18402,-22.72312 c 2.15111,-4.37051 6.45332,-4.37051 4.30221,0 l -11.18402,22.72312 c -2.1511,4.37051 2.15111,4.37051 4.30222,0 l 11.18401,-22.72312 c 2.15111,-4.37051 6.45332,-4.37051 4.30221,0 l -11.18401,22.72312 c -2.15111,4.37051 2.1511,4.37051 4.30221,0 l 11.18402,-22.72312 c 2.1511,-4.37051 6.45331,-4.37051 4.30221,0 l -11.18402,22.72312 c -2.15111,4.37051 2.1511,4.37051 4.30221,0 l 11.18401,-22.72312 c 2.1511,-4.37051 6.4533,-4.37051 4.3022,0 l -11.184,22.72312 c -2.15111,4.37051 2.1511,4.37051 4.3022,0 l 11.184,-22.72312 c 2.1511,-4.37051 6.4533,-4.37051 4.3022,0 l -11.184,22.72312 c -2.1511,4.37051 2.1511,4.37051 4.3022,0 l 11.1841,-22.72312 c 2.1511,-4.37051 6.4533,-4.37051 4.3022,0 l -11.1841,22.72312 c -2.1511,4.37051 2.1512,4.37051 4.3023,0 l 11.184,-22.72312 c 2.1511,-4.37051 6.4533,-4.37051 4.3022,0 l -11.184,22.72312 c -2.1511,4.37051 2.1511,4.37051 4.3022,0 l 11.184,-22.72312 c 2.1511,-4.37051 6.4533,-4.37051 4.3022,0 l -11.184,22.72312 c -2.1511,4.37051 2.1511,4.37051 4.3022,0 l 11.184,-22.72312 c 2.1511,-4.37051 6.4533,-4.37051 4.3022,0 l -11.184,22.72312 c -2.1511,4.37051 2.1511,4.37051 4.3022,0 l 11.184,-22.72312 c 2.1511,-4.37051 6.4534,-4.37051 4.3023,0 l -11.1841,22.72312 c -2.1511,4.37051 2.1511,4.37051 4.3022,0 l 11.1841,-22.72312 c 2.1511,-4.37051 6.4533,-4.37051 4.3022,0 l -11.184,22.72312 c -2.1512,4.37051 2.1511,4.37051 4.3022,0 l 11.184,-22.72312 c 2.1511,-4.37051 6.4533,-4.37051 4.3022,0 l -11.184,22.72312 c -2.1511,4.37051 2.1511,4.37051 4.3022,0 l 11.184,-22.72312 c 2.1511,-4.37051 6.4533,-4.37051 4.3022,0 l -11.184,22.72312 c -2.1511,4.37051 2.1511,4.37051 4.3022,0 l 11.184,-22.72312 c 2.1511,-4.37051 6.4533,-4.37051 4.3022,0 l -11.184,22.72312 c -2.1511,4.37051 2.1511,4.37051 4.3022,0 l 11.184,-22.72312 c 2.1512,-4.37051 6.4534,-4.37051 4.3023,0 l -11.1841,22.72312 c -2.1511,4.37051 2.1511,4.37051 4.3023,0 l 11.184,-22.72312 c 2.1511,-4.37051 6.4533,-4.37051 4.3022,0 l -11.184,22.72312 c -2.1511,4.37051 2.1511,4.37051 4.3022,0 l 11.184,-22.72312 c 2.1511,-4.37051 6.4533,-4.37051 4.3022,0 l -11.184,22.72312 c -2.1511,4.37051 2.1511,4.37051 4.3022,0 l 11.184,-22.72312 c 2.1511,-4.37051 6.4533,-4.37051 4.3022,0 l -11.184,22.72312 c -2.1511,4.37051 2.1511,4.37051 4.3022,0 l 11.184,-22.72312 c 2.1511,-4.37051 6.4534,-4.37051 4.3022,0 l -11.184,22.72312 c -2.1511,4.37051 2.1511,4.37051 4.3022,0 l 11.1841,-22.72312 c 2.1511,-4.37051 6.4533,-4.37051 4.3022,0 l -11.184,22.72312 c -2.1512,4.37051 2.1511,4.37051 4.3022,0 l 11.184,-22.72312 c 2.1511,-4.37051 6.4533,-4.37051 4.3022,0 l -11.184,22.72312 c -2.1511,4.37051 2.1511,4.37051 4.3022,0 l 11.184,-22.72312 c 2.1511,-4.37051 6.4533,-4.37051 4.3022,0 l -11.184,22.72312 c -2.1511,4.37051 2.1511,4.37051 4.3022,0 l 11.184,-22.72312 c 2.1511,-4.37051 6.4533,-4.37051 4.3022,0 l -11.184,22.72312 c -2.1511,4.37051 2.1511,4.37051 4.3022,0 l 11.184,-22.72312 c 2.1512,-4.37051 6.4534,-4.37051 4.3023,0 l -11.1841,22.72312 c -2.1511,4.37051 2.1511,4.37051 4.3023,0 l 11.184,-22.72312 c 2.1511,-4.37051 6.4533,-4.37051 4.3022,0 l -11.184,22.72312 c -2.1511,4.37051 2.1511,4.37051 4.3022,0 l 11.184,-22.72312 c 2.1511,-4.37051 6.4533,-4.37051 4.3022,0 l -11.184,22.72312 c -2.1511,4.37051 2.1511,4.37051 4.3022,0 l 11.184,-22.72312 c 2.1511,-4.37051 6.4533,-4.37051 4.3022,0 l -11.184,22.72312 c -2.1511,4.37051 2.1511,4.37051 4.3022,0 l 11.184,-22.72312 c 2.1511,-4.37051 6.4534,-4.37051 4.3022,0 l -11.184,22.72312 c -2.1511,4.37051 2.1511,4.37051 4.3022,0 l 11.1841,-22.72312 c 2.1511,-4.37051 6.4533,-4.37051 4.3022,0 l -11.1841,22.72312 c -2.1511,4.37051 2.1512,4.37051 4.3023,0 l 11.184,-22.72312 c 2.1511,-4.37051 6.4533,-4.37051 4.3022,0 l -11.184,22.72312 c -2.1511,4.37051 2.1511,4.37051 4.3022,0 l 11.184,-22.72312 c 2.1511,-4.37051 6.4533,-4.37051 4.3022,0 l -11.184,22.72312 c -2.1511,4.37051 2.1511,4.37051 4.3022,0 l 11.184,-22.72312 c 2.1511,-4.37051 6.4533,-4.37051 4.3022,0 l -11.184,22.72312 c -2.1511,4.37051 2.1511,4.37051 4.3022,0 l 11.184,-22.72312 c 2.1512,-4.37051 6.4534,-4.37051 4.3023,0 l -11.1841,22.72312 c -2.1511,4.37051 2.1511,4.37051 4.3022,0 l 29.4144,-59.76261 m 0,-629.35322 -13.6138,27.65991 m 13.6138,-18.9189 -13.6138,27.65991 m 13.6138,-18.91889 -13.6138,27.65991 m 13.6138,-18.91889 -13.6138,27.65991 m 13.6138,-18.9189 -13.6138,27.65991 m 13.6138,-18.91889 -13.6138,27.65991 m 13.6138,-18.91889 -13.6138,27.65991 m 13.6138,-18.91889 -13.6138,27.65991 m 13.6138,-18.9189 -13.6138,27.65991 m 13.6138,-18.91889 -13.6138,27.65991 m 13.6138,-18.91889 -13.6138,27.65991 m 13.6138,-18.9189 -13.6138,27.65991 m 13.6138,-18.91889 -13.6138,27.65991 m 13.6138,-18.91889 -13.6138,27.65991 m 13.6138,-18.9189 -13.6138,27.65991 m 13.6138,-18.91889 -13.6138,27.65991 m 13.6138,-18.91889 -13.6138,27.65991 m 13.6138,-18.91889 -13.6138,27.65991 m 13.6138,-18.9189 -13.6138,27.65991 m 13.6138,-18.91889 -13.6138,27.65991 m 13.6138,-18.91889 -13.6138,27.65991 m 13.6138,-18.9189 -13.6138,27.65991 m 13.6138,-18.91889 -13.6138,27.65991 m 13.6138,-18.91889 -13.6138,27.65991 m 13.6138,-18.91889 -13.6138,27.65991 m 13.6138,-18.9189 -13.6138,27.65991 m 13.6138,-18.91889 -13.6138,27.65991 m 13.6138,-18.91889 -13.6138,27.65991 m 13.6138,-18.9189 -13.6138,27.65991 m 13.6138,-18.91889 -13.6138,27.65991 m 13.6138,-18.91889 -13.6138,27.65991 m 13.6138,-18.91889 -13.6138,27.6599 m 13.6138,-18.91889 -13.6138,27.65991 m 13.6138,-18.91889 -13.6138,27.65991 m 13.6138,-18.91889 -13.6138,27.65991 m 13.6138,-18.9189 -13.6138,27.65991 m 13.6138,-18.91889 -13.6138,27.65991 m 13.6138,-18.91889 -13.6138,27.65991 m 13.6138,-18.9189 -13.6138,27.65991 m 13.6138,-18.91889 -13.6138,27.65991 m 13.6138,-18.91889 -13.6138,27.65991 m 13.6138,-18.91889 -13.6138,27.6599 m 13.6138,-18.91889 -13.6138,27.65991 m 13.6138,-18.91889 -13.6138,27.65991 m 13.6138,-18.91889 -13.6138,27.65991 m 13.6138,-18.9189 -13.6138,27.65991 m 13.6138,-18.91889 -13.6138,27.65991 m 13.6138,-18.91889 -13.6138,27.65991 m 13.6138,-18.9189 -13.6138,27.65991 m 13.6138,-18.91889 -13.6138,27.65991 m 13.6138,-18.91889 -13.6138,27.65991 m 13.6138,-18.91889 -13.6138,27.65991 m 13.6138,-18.9189 -13.6138,27.65991 m 13.6138,-18.91889 -13.6138,27.65991 m 13.6138,-18.91889 -13.6138,27.65991 m 13.6138,-18.9189 -13.6138,27.65991 m 13.6138,-18.91889 -13.6138,27.65991 m 13.6138,-18.91889 -13.6138,27.65991 m 13.6138,-18.9189 -13.6138,27.65991 m 13.6138,-18.91889 -13.6138,27.65991 m 13.6138,-18.91889 -13.6138,27.65991 m 13.6138,-18.91889 -13.6138,27.65991 m 13.6138,-18.9189 -13.6138,27.65991 m 13.6138,-18.91889 -13.6138,27.65991 m 13.6138,-18.91889 -13.6138,27.65991 m 13.6138,-18.9189 -13.6138,27.65991 m 13.6138,-18.91889 -13.6138,27.65991 m 13.6138,-18.91889 -13.6138,27.65991 m 13.6138,-18.91889 -13.6138,27.65991 m 13.6138,-18.9189 -13.6138,27.65991 m 13.6138,-18.91889 -13.6138,27.65991 m 13.6138,-18.91889 -13.6138,27.65991 m 13.6138,-10.17788 -25.1121,51.02159 c -2.1511,4.37051 2.1511,4.37051 4.3022,0 l 20.8099,-42.28057 m 0,8.74101 -16.5077,33.53956 c -2.1511,4.37051 2.1511,4.37051 4.3022,0 l 12.2055,-24.79854 m 0,8.74102 -7.9033,16.05752 c -2.1511,4.37051 2.1511,4.37051 4.3022,0 l 3.6011,-7.3165 m -0.9122,10.59439 0.9122,-1.85338"
   id="path3" /></g></g>
        
    </g></g><g
       style="fill:none;stroke:#000000;stroke-linecap:round;stroke-linejoin:round"
       id="g149"
       transform="matrix(0.90941226,0,0,0.90941226,56.263043,-58.815667)"><g
         transform="translate(136.598,112.132)"
         id="g140"><path
           d="m 457,498 v -161 63 l -66,57 -95,41 H 224 L 161,479 107,438 69.3,375 53.5,302 V 217 L 75.6,145 126,72.4 198,31.5 252,25.2 h 60 l 88,28.4 54,44"
           style="stroke-width:0.1692in"
           transform="scale(0.016,-0.016)"
           id="path137" /><path
           d="m 280,25.2 66,6.3 73,37.8 53,59.7 26,76 6,82 -13,69 -37,66 -51,44 -69,32 -54,6 -85,-9 -78,-57 -47.7,-69 -15.8,-89 3.2,-85 34.7,-75 56.6,-60.1 76,-31.5 56,-3.2"
           style="stroke-width:0.1692in"
           transform="matrix(0.016,0,0,-0.016,8.976,0)"
           id="path138" /><path
           d="M 353,690 H 466 V 154 l -66,-59.5 -57,-47.3 -75,-22 -44,3.2 -89,31.5 -56.2,66.1 -31.6,88 6.3,101 31.5,85 76,66 75,25 76,4 H 466 V 31.5 h 95"
           style="stroke-width:0.1692in"
           transform="matrix(0.016,0,0,-0.016,18.608,0)"
           id="path139" /><path
           d="M 59.9,271 H 479 v 69 l -22,60 -32,41 -53,41 -70,19 -72,3 L 158,476 97.6,422 69.3,359 56.7,290 v -76 l 15.8,-60 50.5,-72.1 63,-41 50,-15.7 h 76 l 82,25.2 63,44.1"
           style="stroke-width:0.1692in"
           transform="matrix(0.016,0,0,-0.016,28.896,0)"
           id="path140" /></g><g
         transform="translate(136.598,127.132)"
         id="g143"><path
           d="m 75.6,447 53.4,41 73,19 85,-6 59,-19 51,-57 16,-50 V 158 L 372,104 302,50.4 233,25.2 142,31.5 72.5,69.3 41,120 v 56 l 28.3,60 72.7,44 85,10 H 413 V 34.6 h 97"
           style="stroke-width:0.1692in"
           transform="scale(0.016,-0.016)"
           id="path141" /><path
           d="M 252,31.5 H 31.5 132 V 495 H 41 132 V 350 l 44,50 41,41 51,31 44,23 53,6 h 76 V 378"
           style="stroke-width:0.1692in"
           transform="matrix(0.016,0,0,-0.016,9.424,0)"
           id="path142" /><path
           d="M 113,690 V 495 H 18.9 306 113 V 145 l 13,-50.5 25,-37.8 41,-25.2 41,-6.3 51,6.3 50,22.1 28,25.2"
           style="stroke-width:0.1692in"
           transform="matrix(0.016,0,0,-0.016,17.792,0)"
           id="path143" /></g><g
         transform="translate(136.598,142.132)"
         id="g148"><path
           d="M 37.8,31.5 H 246 139 V 498 H 37.8 m 94.2,97 29,16 v 25 l -19,16 -25,-6 -10,-25 6,-13 19,-13"
           style="stroke-width:0.1692in"
           transform="scale(0.016,-0.016)"
           id="path144" /><path
           d="M 353,690 H 466 V 154 l -66,-59.5 -57,-47.3 -75,-22 -44,3.2 -89,31.5 -56.2,66.1 -31.6,88 6.3,101 31.5,85 76,66 75,25 76,4 H 466 V 31.5 h 95"
           style="stroke-width:0.1692in"
           transform="matrix(0.016,0,0,-0.016,4.944,0)"
           id="path145" /><path
           d="M 59.9,271 H 479 v 69 l -22,60 -32,41 -53,41 -70,19 -72,3 L 158,476 97.6,422 69.3,359 56.7,290 v -76 l 15.8,-60 50.5,-72.1 63,-41 50,-15.7 h 76 l 82,25.2 63,44.1"
           style="stroke-width:0.1692in"
           transform="matrix(0.016,0,0,-0.016,15.232,0)"
           id="path146" /><path
           d="m 75.6,447 53.4,41 73,19 85,-6 59,-19 51,-57 16,-50 V 158 L 372,104 302,50.4 233,25.2 142,31.5 72.5,69.3 41,120 v 56 l 28.3,60 72.7,44 85,10 H 413 V 34.6 h 97"
           style="stroke-width:0.1692in"
           transform="matrix(0.016,0,0,-0.016,24.512,0)"
           id="path147" /><path
           d="M 63,31.5 V 195 126 l 41,-37.8 47,-34.6 63,-25.2 60,-6.4 76,9.5 66,28.4 34,41.1 10,44 -10,50 -44,35 -53,19 -95,16 -88,15 -57,22 -37.4,32 -12.6,38 v 41 l 22,41 57,37 53,10 h 82 l 54,-16 41,-25 38,-35 28,-25 v -66 161"
           style="stroke-width:0.1692in"
           transform="matrix(0.016,0,0,-0.016,33.936,0)"
           id="path148" /></g></g></g></svg>
