<?xml version="1.0" encoding="UTF-8" standalone="no"?>
<!-- Created with Inkscape (http://www.inkscape.org/) -->

<svg
   width="43.057716mm"
   height="18.946583mm"
   viewBox="0 0 43.057716 18.946583"
   version="1.1"
   id="svg1"
   xml:space="preserve"
   xmlns="http://www.w3.org/2000/svg"
   xmlns:svg="http://www.w3.org/2000/svg"><defs
   id="defs1" />
    <g
   id="g10"
   transform="translate(-120.39958,-58.611411)">
<path
   style="display:inline;fill:none;stroke:#000000;stroke-width:0.0816564"
   d="m 120.75986,58.64028 -0.3314,0.331395 m 0,0.494975 0.82637,-0.82637 m 0.49497,0 -1.32134,1.321344 m 0,0.494975 1.81632,-1.816319 m 0.49497,0 -2.31129,2.311294 m 0,0.494975 2.80627,-2.806269 m 0.49497,0 -3.30124,3.301243 m 0,0.494975 3.79622,-3.796218 m 0.49497,0 -4.29119,4.291193 m 0,0.494974 4.78617,-4.786167 m 0.49497,0 -5.28114,5.281142 m 0,0.494975 5.77612,-5.776117 m 0.49497,0 -6.27109,6.271091 m 3.50264,-3.007664 3.26343,-3.263427 m -3.69585,3.695846 -3.07022,3.07022 m 3.99761,-3.502639 3.26343,-3.263427 m -4.19082,4.190821 -3.07022,3.07022 m 4.49259,-3.997614 3.26342,-3.263427 m -4.68579,4.685795 -3.07022,3.07022 m 4.98756,-4.492588 3.26343,-3.263427 m -5.18077,5.18077 -3.07022,3.07022 m 5.48254,-4.987563 3.26343,-3.263427 m -5.67575,5.675745 -3.07022,3.07022 m 5.97751,-5.482538 3.26343,-3.263427 m -6.17072,6.170719 -3.07022,3.07022 m 6.47249,-5.977512 3.26342,-3.263427 m -6.66569,6.665694 -3.07022,3.07022 m 6.95007,-6.455096 3.28082,-3.280818 m -7.16067,7.160669 -3.07022,3.07022 m 7.42978,-6.934809 3.29608,-3.29608 m -7.65564,7.655643 -3.07022,3.07022 m 7.88383,-7.388855 3.33701,-3.337008 m -8.15062,8.150618 -3.07022,3.07022 m 8.30174,-7.806761 3.41407,-3.414077 m -5.78992,5.78992 -0.24417,0.244173 m -5.68172,5.68172 3.07022,-3.07022 m 9.14057,-8.645593 -3.33019,3.330186 c -0.24749,0.247487 0.11098,0.383995 0.35847,0.136508 l 3.46669,-3.466694 m -7.02404,6.529068 0.73915,-0.739148 m -3.35065,3.350648 -3.07022,3.07022 m 6.95079,-6.455815 -1.26907,1.269069 m -5.68172,5.68172 3.07022,-3.07022 m 10.13052,-9.635542 -3.60241,3.602402 c -0.24748,0.247487 0.0779,0.417089 0.32538,0.169602 l 3.772,-3.772004 m -8.01399,7.519017 1.70513,-1.705133 m -4.31663,4.316633 -3.07022,3.07022 m 7.80655,-7.311575 -2.12483,2.12483 m -5.68172,5.68172 3.07022,-3.07022 m 11.12047,-10.625492 -3.96257,3.962567 c -0.24749,0.247487 0.0365,0.458487 0.28397,0.211 l 4.17357,-4.173566 m -9.00394,8.508965 2.31465,-2.314648 c 0.24748,-0.247487 0.57694,-0.08197 0.32946,0.165516 l -2.64411,2.644107 m -2.6115,2.116525 -3.07022,3.07022 m 0,0.494975 3.07022,-3.07022 M 135.6091,58.64028 131.20448,63.0449 c -0.24749,0.247487 -0.004,0.498476 0.24398,0.250989 l 4.65561,-4.655609 m -9.99389,9.498916 2.92586,-2.925863 c 0.24749,-0.247487 0.48104,0.01394 0.23355,0.261427 l -3.15941,3.159411 m -2.6115,2.116525 -3.07022,3.07022 m 0,0.494974 3.07022,-3.07022 m 13.10036,-12.60539 -4.92637,4.926373 c -0.24749,0.247487 -0.0429,0.537918 0.20455,0.29043 l 5.2168,-5.216803 m -10.98384,10.488865 3.34568,-3.345683 c 0.24749,-0.247487 0.38852,0.106456 0.14103,0.353943 l -3.48671,3.486715 m -2.6115,2.116525 -3.07022,3.07022 m 0,0.494975 3.07022,-3.07022 m 14.09031,-13.59534 -5.52704,5.52704 c -0.24748,0.247487 -0.0828,0.577808 0.16466,0.330321 l 5.85736,-5.857361 m -11.97379,11.478814 3.77036,-3.770365 m -6.38186,6.381865 -3.07022,3.07022 m 9.53532,-9.040347 -3.8536,3.853602 m -5.68172,5.68172 3.07022,-3.07022 m 15.08026,-14.585289 -6.40045,6.400455 m -6.06831,6.068309 3.86567,-3.865671 m -6.47717,6.477171 -3.07022,3.07022 m 13.85098,-13.356005 4.79448,-4.794479 m -5.23208,5.232079 -1.5329,1.532903 m -6.19876,6.198757 3.85299,-3.85299 m -6.40487,6.40487 -2.94422,2.944224 c -0.24749,0.247487 0.004,0.49087 0.25159,0.243382 l 3.13154,-3.131541 m 10.7772,-10.777205 4.79448,-4.794479 m -5.72705,5.727053 -1.43179,1.431789 m -5.88635,5.886351 3.43947,-3.43947 m 6.83727,-6.342296 3.26343,-3.263427 m -3.82337,3.823368 -0.97111,0.971111 m -2.79425,2.794251 1.3667,-1.366702 m -3.87867,3.87867 -2.9445,2.944495 m -5.84364,5.843648 3.31715,-3.317156 m 16.06666,-15.571685 -3.26342,3.263427 m -1.56465,1.564648 0.54646,-0.546462 m -2.43539,2.43539 -1.33325,1.333248 m -5.02078,5.020778 2.49959,-2.499583 m -5.00024,5.000239 -3.31716,3.317156 m 16.12039,-15.625414 3.26343,-3.263427 m -7.17031,7.170306 -1.35923,1.359231 m -4.53379,4.533788 1.93356,-1.93356 m -4.44192,4.44192 -3.31715,3.317156 m 16.12039,-15.625414 3.26342,-3.263427 m -7.23589,7.235888 -1.73823,1.738234 m -3.95418,3.954178 1.20149,-1.201487 m -3.84487,3.844872 -3.31716,3.317156 m 16.06438,-15.569402 3.31944,-3.319439 m -7.23589,7.235888 -2.23321,2.233209 m -9.41974,9.419744 3.31715,-3.317156 m 16.06666,-15.571685 -3.75477,3.754771 m -6.22124,6.22124 2.74012,-2.740123 m -8.33579,8.335797 -3.31716,3.317156 m 15.13407,-14.639095 4.24975,-4.249746 m -7.23589,7.235888 -3.28009,3.280093 m -8.37286,8.37286 3.37367,-3.373675 m 16.01014,-15.515166 -4.74472,4.744721 m -6.31057,6.310573 3.75003,-3.750033 m -8.16862,8.168621 -3.41496,3.414959 m 14.14412,-13.649146 5.2397,-5.239695 m -7.80024,7.800235 -3.8868,3.8868 m -7.20181,7.201806 3.54867,-3.548667 m 15.83515,-15.340174 -5.73467,5.73467 m -6.71642,6.716419 4.15588,-4.155879 m -6.82862,6.828618 -3.76501,3.765013 m 13.15417,-12.659196 6.22965,-6.229645 m -8.79019,8.790185 -10.09866,10.098656 m 12.6592,-12.164221 6.72462,-6.72462 m -9.28516,9.285159 -9.60368,9.603682 m 12.16422,-11.669247 7.21959,-7.219594 m -9.78013,9.780134 -9.10871,9.108707 m 16.12039,-15.625414 3.26343,-3.263427 m -3.98072,3.980719 -3.73385,3.73385 m -11.17427,11.174272 8.61373,-8.613732 m 10.77008,-10.275109 -3.26342,3.263427 m -4.94612,4.946117 3.73385,-3.73385 m -6.29439,6.29439 -8.11876,8.118757 m 16.12039,-15.625414 3.26343,-3.263427 m -4.97067,4.970668 -3.73385,3.73385 m -4.34068,4.340675 1.78014,-1.780135 m -2.46668,2.46668 -5.1571,5.157103 m 16.12039,-15.625414 3.26342,-3.263427 m -9.19949,9.199493 3.54824,-3.548235 c 0.24748,-0.247487 0.43517,0.0598 0.18768,0.30729 l -3.73592,3.735919 m -3.8457,3.350726 1.28516,-1.28516 m -2.46668,2.46668 -4.66213,4.662128 m 16.12039,-15.625414 3.26343,-3.263427 m -13.0452,13.045193 0.79019,-0.790185 m -2.46668,2.46668 -4.16715,4.167153 m 16.12038,-15.625414 3.26343,-3.263427 m -5.77293,5.772933 -4.41651,4.416509 m -2.85575,2.855751 0.29521,-0.295211 m -6.13886,6.138859 3.48656,-3.486563 c 0.24749,-0.247487 0.38744,0.107535 0.13996,0.355023 l -3.13155,3.131541 m 15.62542,-15.625415 3.26343,-3.263427 m -5.77294,5.772933 -4.91148,4.911484 m 11.17939,-10.684417 -3.26343,3.263427 m -7.91596,7.915965 5.40646,-5.406459 m -9.79875,9.798752 -3.31716,3.317156 m 16.12039,-15.625414 3.26343,-3.263427 m -5.77294,5.772933 -5.90143,5.901433 m -7.21448,7.214475 3.31716,-3.317156 m 16.06666,-15.571685 -3.26343,3.263427 m -8.90591,8.905914 6.39641,-6.396408 m -9.79875,9.798752 -3.31716,3.317156 m 16.12039,-15.625414 3.26343,-3.263427 m -5.77294,5.772933 -6.89138,6.891383 m -6.22453,6.224525 3.31716,-3.317156 m 16.06666,-15.571685 -3.26343,3.263427 m -9.78176,9.781766 7.27226,-7.27226 m -9.79876,9.798752 -3.31715,3.317156 m 16.12039,-15.625414 3.26343,-3.263427 m -5.77294,5.772933 -7.27226,7.27226 m -5.84365,5.843648 3.31716,-3.317156 m 16.06666,-15.571685 -3.26343,3.263427 m -9.78176,9.781766 7.27226,-7.27226 m -9.79876,9.798752 -3.31715,3.317156 m 16.12039,-15.625414 3.26342,-3.263427 m -5.77293,5.772933 -7.27226,7.27226 m -5.84365,5.843648 3.31716,-3.317156 m 16.06666,-15.571685 -3.26343,3.263427 m -2.5095,2.509506 -7.08665,7.086645 c -0.24749,0.247487 0.0401,0.454868 0.28759,0.207381 l 6.65515,-6.655144 m -9.65485,9.15987 -3.31715,3.317156 m 16.12039,-15.625414 3.26342,-3.263427 m -18.88884,18.888841 3.31716,-3.317156 m 16.06666,-15.571685 -3.65958,3.659579 m -10.08797,10.08797 6.36967,-6.369674 m -8.19381,8.19381 -3.31715,3.317156 m 15.22926,-14.734288 4.15455,-4.154553 m -8.34393,8.343934 -5.89859,5.898589 m -4.64632,4.646318 3.31716,-3.317156 m 16.06666,-15.571685 -4.64953,4.649528 m -10.08797,10.08797 5.4275,-5.427503 m -6.26169,6.26169 -3.31715,3.317156 m 16.12039,-15.625414 3.26342,-3.263427 m -4.03042,4.030423 -1.11408,1.11408 m -13.74434,13.744338 8.61279,-8.612786 m 10.77103,-10.276055 -3.26343,3.263427 m -2.3285,2.328504 1.06653,-1.066534 m -6.71672,6.716718 -7.64672,7.646726 m 16.12038,-15.625414 3.26343,-3.263427 m -5.02037,5.020372 -1.51705,1.517048 m -12.35142,12.351421 6.68067,-6.680666 m 12.70315,-12.208175 -3.26343,3.263427 m -4.23206,4.232057 1.98014,-1.980137 m -7.65889,7.658888 -5.7146,5.714606 m 16.12038,-15.625414 3.26343,-3.263427 m -6.01032,6.010321 -2.44323,2.443226 m -10.43529,10.435294 4.74855,-4.748546 m 14.63527,-14.140295 -3.26343,3.263427 m -6.14819,6.148184 2.90632,-2.906315 m -8.60106,8.601059 -3.78249,3.782486 m 16.12039,-15.625414 3.26343,-3.263427 m -7.00027,7.000271 -3.3694,3.369404 m -8.51917,8.519166 3.33788,-3.337879 m 16.04593,-15.550962 -3.26342,3.263427 m -8.06431,8.064311 3.83249,-3.832492 m -8.07644,8.076439 -3.31716,3.317156 m 16.12039,-15.625414 3.26343,-3.263427 m -7.99022,7.99022 -4.29558,4.295581 m -6.60304,6.60304 3.31715,-3.317156 m 16.06666,-15.571685 -3.26342,3.263427 m -2.61028,2.610278 0.11784,-0.117838 m -2.72933,2.729328 -4.75867,4.75867 m -5.64498,5.644976 3.31716,-3.317156 m 16.06666,-15.571685 -3.26343,3.263427 m -3.10525,3.105253 0.61281,-0.612813 m -3.2243,3.224303 -5.22176,5.221759 m -4.68691,4.686912 3.31715,-3.317156 m 16.06666,-15.571685 -3.26342,3.263427 m -3.60023,3.600227 1.10779,-1.107787 m -3.71928,3.719277 -9.4137,9.413697 m 16.12039,-15.625414 3.26343,-3.263427 m -5.75587,5.755867 -1.60276,1.602762 m -11.53021,11.530212 8.91872,-8.918722 m 10.46509,-9.970119 -3.26342,3.263427 m -2.49244,2.49244 -1.91212,1.912121 c -0.24749,0.247487 0.10837,0.386596 0.35586,0.139108 l 2.05123,-2.05123 m -5.2042,4.709228 -8.42375,8.423747 m 19.38382,-18.888841 -3.07781,3.077812 c -0.24749,0.247487 -0.059,0.554003 0.18845,0.306516 l 2.99011,-2.990105 m -18.98959,18.494618 7.92877,-7.928773 m 3.46233,-2.967356 2.23685,-2.236845 m -5.69918,5.699176 -7.4338,7.433798 m 15.3189,-14.823923 3.17572,-3.17572 m -4.86667,4.866669 -2.23684,2.236845 m -10.89613,10.896129 6.93882,-6.938823 m 11.06082,-10.565846 -3.17572,3.17572 m -3.43282,3.43282 2.23684,-2.236845 m -6.68912,6.689125 -6.44385,6.443849 m 14.32895,-13.833974 3.17572,-3.17572 m -3.87672,3.87672 -2.23684,2.236845 m -10.89613,10.896129 5.94887,-5.948874 m 11.06082,-10.565845 -5.61859,5.61859 m -2.83074,2.83074 0.35528,-0.355285 m -2.96677,2.966775 -5.4539,5.453899 m 11.3911,-10.896129 5.12362,-5.123616 m -7.59907,7.599071 -0.85026,0.850259 m -7.57042,7.570415 4.95893,-4.958925 m 11.06082,-10.565845 -4.62864,4.628641 m -3.82069,3.820689 1.34523,-1.345234 m -3.95672,3.956724 -4.46395,4.46395 m 11.3911,-10.896129 4.13367,-4.133666 m -6.60912,6.609121 -1.84021,1.840209 m -6.58046,6.580465 3.96897,-3.968975 m 11.06082,-10.565846 -3.71612,3.716123 m -2.39803,2.398024 -2.14956,2.149568 c -0.24749,0.247487 -0.0284,0.52338 0.21908,0.275892 l 2.42546,-2.425461 m -8.91565,8.420675 3.28838,-3.288385 c 0.24749,-0.247487 0.58562,-0.09064 0.33813,0.156844 l -3.13154,3.131541 m 10.33679,-10.336786 3.70306,-3.70306 m 0,0.494975 -3.70306,3.70306 m -4.03221,4.032213 2.61107,-2.611076 m -5.10352,5.103518 -3.31715,3.317156 m 9.84181,-9.346836 3.70306,-3.70306 m -4.62922,4.629222 -2.61108,2.611076 m -5.8096,5.809598 3.31716,-3.317156 m 9.73274,-9.237766 -3.70306,3.70306 m -3.04226,3.042264 2.61107,-2.611076 m -5.10352,5.103518 -3.31715,3.317156 m 6.30457,-5.809598 6.25035,-6.250349 m -8.74279,8.742791 -3.31716,3.317156 m 6.30458,-5.809598 5.75537,-5.755374 m -8.24782,8.247816 -3.31715,3.317156 m 6.30457,-5.809598 5.2604,-5.2604 m -7.75284,7.752842 -3.31716,3.317156 m 6.30457,-5.809598 4.76543,-4.765425 m -7.25787,7.257867 -3.31715,3.317156 m 6.30457,-5.809598 4.27045,-4.27045 m -6.76289,6.762892 -3.31716,3.317156 m 6.30457,-5.809598 3.77548,-3.775476 m -6.26792,6.267918 -3.31715,3.317156 m 6.30457,-5.809598 3.2805,-3.280501 m -5.77294,5.772943 -3.31716,3.317156 m 5.91438,-5.419404 3.17572,-3.17572 m -5.27797,5.277968 -3.31715,3.317156 m 5.4194,-4.92443 3.17572,-3.17572 m -4.78299,4.782994 -3.31716,3.317156 m 4.92443,-4.429455 3.17572,-3.17572 m -4.28802,4.288019 -3.31716,3.317156 m 4.42946,-3.93448 3.17572,-3.17572 m -3.79304,3.793044 -3.31716,3.317156 m 0.49497,0 6.61523,-6.615226 m 0,0.494975 -6.12025,6.120251 m 0.49497,0 5.62528,-5.625276 m 0,0.494975 -5.1303,5.130301 m 0.49497,0 4.63533,-4.635327 m 0,0.494975 -4.14035,4.140352 m 0.49497,0 3.64538,-3.645377 m 0,0.494974 -3.1504,3.150403 m 0.49497,0 2.65543,-2.655428 m 0,0.494975 -2.16045,2.160453 m 0.49497,0 1.66548,-1.665479 m 0,0.494975 -1.1705,1.170504 m 0.49497,0 0.67553,-0.675529 m 0,0.494974 -0.18056,0.180555"
   id="path10" /></g></svg>
